<?xml version="1.0" standalone="no"?>
<!DOCTYPE svg PUBLIC "-//W3C//DTD SVG 20010904//EN"
 "http://www.w3.org/TR/2001/REC-SVG-20010904/DTD/svg10.dtd">
<svg version="1.0" xmlns="http://www.w3.org/2000/svg"
 width="3072.000000pt" height="1386.000000pt" viewBox="0 0 3072.000000 1386.000000"
 preserveAspectRatio="xMidYMid meet">

<g transform="translate(0.000000,1386.000000) scale(0.100000,-0.100000)"
fill="#000000" stroke="none">
<path d="M0 6930 l0 -6930 9698 0 9697 0 24 26 c22 22 23 28 12 46 -7 12 -9
23 -4 27 16 11 22 39 10 45 -9 3 -8 7 2 14 23 16 6 94 -29 127 -15 15 -33 24
-38 21 -20 -12 -25 17 -6 31 10 8 19 19 19 24 0 6 8 17 19 24 19 14 46 60 46
78 0 5 16 26 36 45 22 21 33 40 29 49 -3 9 -1 21 5 28 15 19 -7 30 -26 14 -17
-14 -19 -12 -28 19 -5 13 -3 22 3 22 6 0 11 5 11 10 0 6 -8 10 -17 8 -14 -2
-19 7 -24 45 -4 26 -3 62 1 79 5 17 7 34 5 38 -10 16 24 30 78 35 31 2 59 0
62 -5 3 -5 12 -7 21 -3 13 5 13 8 -2 24 -9 10 -20 16 -24 14 -16 -10 -18 25
-4 54 18 36 12 51 -21 51 -12 0 -25 7 -29 15 -3 8 -13 15 -22 15 -33 0 -53 38
-48 91 3 31 1 49 -6 49 -6 0 -9 4 -6 9 7 10 54 2 62 -11 4 -5 12 1 18 14 7 12
20 22 29 22 19 -2 34 53 19 68 -7 7 -2 27 13 62 14 32 21 63 18 79 -4 22 -2
27 13 27 11 0 34 9 52 20 18 11 38 20 46 20 18 0 48 -35 45 -52 -2 -7 1 -40 6
-73 14 -96 13 -164 -2 -170 -10 -3 -11 -10 -5 -22 5 -10 8 -58 6 -108 -5 -117
11 -225 34 -226 14 0 14 -2 -2 -8 -16 -6 -19 -21 -21 -149 -3 -159 5 -188 45
-164 12 7 24 11 27 8 3 -3 8 -70 11 -148 3 -79 7 -191 9 -250 l4 -108 1208 0
c1062 0 1210 2 1221 15 16 19 46 19 54 0 4 -12 29 -15 136 -15 120 0 131 1
126 18 -17 57 -36 159 -36 192 0 31 10 54 49 107 105 148 116 274 36 408 -19
32 -35 61 -35 65 0 23 62 76 119 103 52 23 82 31 141 33 91 3 113 -2 265 -61
154 -60 478 -144 679 -175 200 -31 325 -41 571 -47 149 -3 278 -10 288 -15 22
-11 22 -35 -2 -268 -11 -102 -23 -225 -26 -273 l-7 -88 93 3 94 3 7 60 c3 33
11 121 17 195 15 178 32 320 42 346 7 20 17 22 126 28 125 7 628 54 653 61 36
11 255 45 285 45 21 0 51 12 83 34 90 62 416 176 462 161 32 -10 43 -211 14
-267 -13 -26 -14 -38 -5 -67 6 -20 13 -92 15 -161 2 -69 7 -138 11 -155 4 -23
1 -36 -17 -56 -29 -33 -144 -121 -231 -178 -37 -24 -67 -45 -67 -47 0 -2 1008
-4 2240 -4 l2240 0 0 6930 0 6930 -15360 0 -15360 0 0 -6930z m27946 6424 c15
-11 37 -33 48 -48 20 -26 21 -42 24 -391 3 -407 3 -411 -64 -461 l-37 -29
-1698 0 -1698 0 -27 21 c-15 11 -37 33 -48 48 -20 26 -21 42 -24 379 -2 194 0
366 3 384 7 40 49 91 90 109 25 11 330 13 1717 11 1686 -2 1687 -2 1714 -23z
m-24811 -180 c62 -57 316 -297 444 -420 53 -51 113 -107 134 -126 20 -19 37
-37 37 -41 0 -4 -53 -7 -118 -7 l-118 0 -40 36 c-21 20 -78 73 -125 118 -199
189 -388 367 -441 416 -32 29 -58 57 -58 61 0 5 53 9 118 9 l117 0 50 -46z
m-101 -287 c174 -164 316 -301 316 -303 0 -2 -61 -4 -136 -4 l-137 0 -92 90
c-50 50 -95 87 -98 83 -4 -3 -7 -44 -7 -90 l0 -83 -90 0 -90 0 0 306 c0 181 4
304 9 302 5 -1 151 -137 325 -301z m9259 159 c8 -20 -20 -43 -35 -28 -14 14
-3 42 16 42 7 0 16 -6 19 -14z m1927 -1 c0 -8 -9 -15 -20 -15 -16 0 -40 -26
-40 -44 0 -3 14 -6 30 -6 20 0 30 -5 30 -15 0 -10 -10 -15 -30 -15 l-30 0 0
-95 c0 -78 -3 -95 -15 -95 -12 0 -15 17 -15 95 0 88 -1 95 -20 95 -11 0 -20 7
-20 15 0 8 9 15 20 15 14 0 20 7 20 22 0 12 7 30 17 40 20 22 73 25 73 3z
m406 4 c3 -6 0 -17 -7 -25 -18 -17 -44 -2 -36 20 7 18 33 21 43 5z m3467 -3
c8 -20 -20 -43 -35 -28 -14 14 -3 42 16 42 7 0 16 -6 19 -14z m923 3 c3 -6 0
-17 -7 -25 -18 -17 -44 -2 -36 20 7 18 33 21 43 5z m-7467 -25 c32 -26 41 -54
18 -54 -7 0 -20 9 -29 20 -25 29 -64 35 -94 15 -45 -29 -29 -56 51 -85 75 -27
94 -51 81 -103 -15 -62 -137 -76 -183 -22 -13 14 -23 30 -23 36 0 16 35 10 47
-10 25 -40 115 -33 128 11 10 28 -9 44 -75 62 -87 24 -116 79 -67 123 45 41
102 44 146 7z m1972 -3 c25 -30 25 -92 0 -122 -15 -18 -32 -25 -77 -29 l-59
-5 -3 -52 c-3 -45 -6 -53 -23 -53 -18 0 -19 8 -19 146 l0 146 81 -4 c70 -3 83
-6 100 -27z m999 -116 c0 -122 -2 -145 -15 -145 -13 0 -15 23 -15 145 0 122 2
145 15 145 13 0 15 -23 15 -145z m874 78 c87 -233 85 -223 58 -223 -13 0 -22
12 -31 40 l-12 41 -61 -3 c-60 -3 -62 -4 -73 -38 -8 -23 -19 -36 -33 -38 -21
-3 -20 1 19 110 23 62 46 128 52 146 8 23 16 32 33 32 18 0 27 -12 48 -67z
m156 16 c0 -50 0 -50 22 -35 62 43 138 -9 138 -94 0 -87 -87 -143 -140 -90
l-20 20 0 -20 c0 -11 -7 -20 -15 -20 -13 0 -15 23 -15 145 0 122 2 145 15 145
11 0 15 -12 15 -51z m1910 36 c0 -11 -12 -15 -45 -15 l-45 0 0 -130 c0 -123
-1 -130 -20 -130 -19 0 -20 7 -20 130 l0 130 -45 0 c-33 0 -45 4 -45 15 0 12
19 15 110 15 91 0 110 -3 110 -15z m1870 -130 c0 -122 -2 -145 -15 -145 -13 0
-15 23 -15 145 0 122 2 145 15 145 13 0 15 -23 15 -145z m-5300 100 c0 -20 5
-25 25 -25 16 0 25 -6 25 -15 0 -9 -9 -15 -25 -15 -26 0 -26 0 -23 -77 3 -72
5 -78 26 -81 28 -4 29 -32 1 -32 -51 0 -59 15 -59 105 0 78 -2 85 -20 85 -11
0 -20 7 -20 15 0 8 9 15 20 15 15 0 20 7 20 25 0 16 6 25 15 25 9 0 15 -9 15
-25z m2250 0 c0 -18 5 -25 20 -25 11 0 20 -7 20 -15 0 -8 -9 -15 -20 -15 -19
0 -21 -5 -18 -77 3 -72 5 -78 26 -81 29 -4 29 -32 -1 -32 -48 0 -61 22 -65
109 -3 61 -8 81 -18 81 -8 0 -14 7 -14 15 0 8 7 15 15 15 9 0 15 9 15 25 0 18
5 25 20 25 15 0 20 -7 20 -25z m1680 0 c0 -20 5 -25 25 -25 16 0 25 -6 25 -15
0 -9 -9 -15 -25 -15 -24 0 -25 -2 -25 -64 0 -77 6 -96 31 -96 10 0 19 -7 19
-15 0 -20 -39 -19 -62 2 -14 13 -18 31 -18 95 0 63 -3 78 -15 78 -8 0 -15 7
-15 15 0 8 7 15 15 15 9 0 15 9 15 25 0 16 6 25 15 25 9 0 15 -9 15 -25z
m-6169 -54 c19 -20 29 -40 29 -60 l0 -31 -80 0 c-78 0 -79 0 -71 -22 4 -13 20
-30 34 -38 24 -13 30 -13 62 4 37 20 51 17 41 -9 -8 -22 -55 -38 -96 -31 -52
8 -80 46 -80 107 0 65 38 109 95 109 27 0 44 -8 66 -29z m119 19 c0 -7 6 -7
19 0 11 5 27 10 35 10 27 0 17 -24 -17 -40 -32 -15 -32 -15 -35 -97 -3 -75 -5
-83 -22 -83 -19 0 -20 7 -20 110 0 103 1 110 20 110 11 0 20 -5 20 -10z m166
-75 c16 -47 31 -85 34 -85 3 0 18 38 34 85 22 68 31 85 47 85 23 0 23 1 5 -41
-7 -19 -26 -67 -40 -106 -44 -117 -53 -108 -142 130 -4 13 -1 17 14 17 17 0
26 -15 48 -85z m214 -25 c0 -103 -1 -110 -20 -110 -19 0 -20 7 -20 110 0 103
1 110 20 110 19 0 20 -7 20 -110z m207 86 c22 -20 26 -27 16 -37 -10 -10 -17
-9 -33 9 -43 46 -102 13 -104 -57 -1 -70 60 -105 105 -60 16 16 24 18 33 9 8
-9 4 -17 -17 -36 -40 -34 -90 -32 -128 5 -25 25 -29 37 -29 81 0 44 4 56 29
81 38 37 88 39 128 5z m234 -5 c19 -20 29 -40 29 -60 l0 -31 -80 0 c-78 0 -79
0 -71 -22 4 -13 20 -30 34 -38 24 -13 30 -13 62 4 37 20 51 17 41 -9 -8 -22
-55 -38 -96 -31 -52 8 -80 46 -80 107 0 65 38 109 95 109 27 0 44 -8 66 -29z
m210 10 c19 -15 21 -22 12 -32 -9 -9 -15 -8 -28 5 -21 20 -59 21 -75 1 -17
-21 1 -41 43 -49 75 -14 100 -66 51 -105 -15 -12 -41 -21 -59 -21 -31 0 -85
32 -85 51 0 15 36 10 50 -6 24 -29 85 -13 78 21 -2 12 -19 23 -47 31 -59 17
-73 30 -69 67 5 53 83 75 129 37z m806 -5 c25 -22 28 -31 28 -86 0 -55 -3 -64
-28 -86 -40 -34 -88 -32 -129 5 -29 26 -33 35 -33 81 0 46 4 55 33 81 41 37
89 39 129 5z m123 7 c0 -15 1 -15 18 0 10 10 26 17 35 17 28 0 19 -24 -16 -40
-32 -15 -32 -15 -35 -97 -3 -75 -5 -83 -22 -83 -19 0 -20 7 -20 110 0 103 1
110 20 110 12 0 20 -7 20 -17z m532 -11 c27 -25 32 -36 32 -81 1 -47 -2 -56
-32 -82 -44 -40 -93 -40 -133 0 -25 25 -29 37 -29 81 0 44 4 56 29 81 40 39
89 40 133 1z m218 -82 c0 -91 -3 -110 -15 -110 -12 0 -15 19 -15 110 0 91 3
110 15 110 12 0 15 -19 15 -110z m217 86 c25 -22 28 -31 28 -86 0 -55 -3 -64
-28 -86 -40 -34 -88 -32 -129 5 -29 26 -33 35 -33 81 0 46 4 55 33 81 41 37
89 39 129 5z m1062 10 c31 -17 51 -54 51 -96 0 -109 -137 -152 -186 -59 -51
100 39 204 135 155z m141 -71 c0 -81 1 -86 25 -97 19 -9 29 -8 50 6 23 15 25
22 25 96 0 73 2 80 20 80 19 0 20 -7 20 -110 0 -103 -1 -110 -20 -110 -11 0
-20 7 -20 16 0 14 -2 14 -22 0 -32 -23 -65 -20 -93 9 -23 22 -25 32 -25 110 0
78 2 85 20 85 18 0 20 -7 20 -85z m480 6 c0 -83 12 -111 47 -111 39 0 53 30
53 112 0 71 2 78 20 78 19 0 20 -7 20 -110 0 -103 -1 -110 -20 -110 -12 0 -20
7 -20 17 0 15 -1 15 -18 0 -25 -22 -64 -21 -93 2 -21 17 -24 29 -27 110 -4 87
-3 91 17 91 20 0 21 -5 21 -79z m331 60 c19 -16 21 -22 12 -32 -10 -10 -16 -9
-31 4 -23 21 -56 22 -72 2 -17 -21 -4 -34 57 -54 37 -12 50 -23 58 -45 8 -25
6 -31 -18 -52 -40 -34 -113 -29 -139 10 -19 28 12 37 38 11 20 -19 58 -19 74
0 18 22 6 42 -32 50 -53 11 -78 32 -78 65 0 55 82 81 131 41z m780 -10 c19
-20 29 -40 29 -60 l0 -31 -80 0 c-78 0 -79 0 -71 -22 4 -13 20 -30 34 -38 24
-13 30 -13 62 4 37 20 51 17 41 -9 -8 -22 -55 -38 -96 -31 -52 8 -80 46 -80
107 0 65 38 109 95 109 27 0 44 -8 66 -29z m210 10 c19 -15 21 -22 12 -32 -9
-9 -15 -8 -28 5 -21 20 -59 21 -75 1 -17 -21 1 -41 43 -49 75 -14 100 -66 51
-105 -15 -12 -41 -21 -59 -21 -31 0 -85 32 -85 51 0 15 36 10 50 -6 24 -29 85
-13 78 21 -2 12 -19 23 -47 31 -59 17 -73 30 -69 67 5 53 83 75 129 37z m249
-91 c0 -103 -1 -110 -20 -110 -19 0 -20 7 -20 110 0 103 1 110 20 110 19 0 20
-7 20 -110z m100 93 c0 -15 1 -15 18 0 25 22 58 21 78 -2 16 -18 17 -18 35 0
26 26 73 24 99 -3 17 -18 20 -35 20 -110 0 -81 -2 -88 -20 -88 -18 0 -20 7
-20 83 0 85 -8 107 -41 107 -33 0 -49 -39 -49 -117 0 -58 -3 -73 -15 -73 -12
0 -15 15 -15 79 0 59 -4 84 -16 95 -18 19 -28 20 -55 6 -16 -9 -19 -22 -19
-95 0 -78 -2 -85 -20 -85 -19 0 -20 7 -20 110 0 103 1 110 20 110 12 0 20 -7
20 -17z m449 3 c31 -17 51 -54 51 -96 0 -109 -137 -152 -186 -59 -51 100 39
204 135 155z m131 -2 c0 -14 2 -14 22 0 30 21 71 20 98 -2 19 -16 23 -31 28
-110 5 -89 4 -92 -17 -92 -20 0 -21 5 -21 79 0 84 -12 111 -50 111 -38 0 -50
-27 -50 -111 0 -72 -2 -79 -20 -79 -19 0 -20 7 -20 110 0 91 3 110 15 110 8 0
15 -7 15 -16z m240 -94 c0 -91 -3 -110 -15 -110 -12 0 -15 19 -15 110 0 91 3
110 15 110 12 0 15 -19 15 -110z m201 91 c21 -17 24 -29 27 -110 4 -87 3 -91
-17 -91 -12 0 -21 6 -21 16 0 14 -2 14 -22 0 -48 -34 -118 -6 -118 47 0 34 29
56 84 63 50 7 66 24 46 49 -16 20 -50 19 -79 -1 -23 -17 -46 -8 -33 12 24 36
97 44 133 15z m6759 -1231 c0 -6 -8 -14 -17 -17 -30 -12 -56 -46 -57 -74 -1
-15 3 -27 8 -26 6 1 11 -5 13 -14 3 -14 -5 -16 -54 -14 -32 1 -66 5 -75 9 -20
9 -57 -13 -113 -67 -22 -21 -52 -41 -68 -44 -38 -8 -44 -23 -19 -44 31 -24 27
-37 -10 -41 -43 -4 -49 -31 -11 -47 25 -10 30 -21 46 -88 17 -76 17 -77 -4
-99 -32 -35 -22 -162 16 -194 8 -7 15 -18 15 -25 0 -7 11 -16 25 -19 18 -5 27
-17 35 -46 11 -39 9 -43 -50 -137 -37 -59 -60 -107 -60 -125 0 -25 -15 -63
-30 -78 -3 -3 -5 -23 -5 -45 0 -22 -3 -65 -5 -95 -3 -30 -1 -56 4 -57 19 -3
24 -30 16 -98 -5 -50 -4 -83 6 -115 7 -25 21 -73 31 -107 13 -46 22 -63 35
-63 9 0 24 -10 32 -22 9 -12 25 -22 36 -23 17 -1 20 3 16 19 -3 12 -6 29 -6
38 0 9 -8 24 -17 34 -15 15 -18 38 -19 146 -1 71 2 130 5 133 10 5 27 -7 33
-25 4 -11 8 -9 15 10 13 32 6 57 -19 63 -16 5 -18 9 -8 26 6 12 15 21 20 21 6
0 10 9 10 19 0 11 5 23 10 26 6 4 10 -7 10 -27 1 -27 2 -30 11 -15 6 9 7 26 4
37 -4 11 0 29 9 42 9 12 16 28 16 36 0 36 130 272 150 272 23 0 6 -142 -20
-175 -5 -5 -13 -39 -20 -75 -6 -36 -17 -81 -24 -100 -7 -19 -16 -62 -20 -95
-24 -207 -53 -350 -82 -404 -13 -24 -24 -52 -24 -62 0 -11 -9 -19 -22 -21 -15
-2 -24 -11 -26 -24 -2 -12 -11 -29 -21 -38 -25 -23 -16 -74 15 -88 16 -8 40
-45 74 -114 43 -88 50 -111 50 -163 0 -53 -20 -156 -34 -180 -12 -19 -37 -131
-46 -202 -12 -101 7 -214 55 -339 96 -248 122 -340 165 -574 11 -59 58 -203
75 -231 6 -11 18 -38 25 -60 7 -22 23 -60 35 -85 28 -57 37 -104 40 -208 2
-46 5 -85 8 -89 3 -3 3 -18 0 -34 -3 -16 -1 -35 4 -41 9 -11 18 -44 26 -100 5
-36 95 -125 164 -160 56 -30 84 -38 158 -45 50 -4 99 -7 110 -6 11 2 67 3 125
3 120 0 292 16 333 32 25 10 31 8 57 -17 33 -32 82 -135 84 -178 1 -38 0 -38
-202 -113 -304 -113 -439 -157 -509 -165 -85 -10 -173 -41 -199 -70 -10 -12
-49 -39 -87 -60 -71 -42 -138 -105 -165 -154 -8 -16 -27 -64 -41 -105 l-26
-74 -168 -111 c-92 -60 -191 -125 -220 -143 -30 -19 -69 -57 -92 -89 -22 -30
-60 -73 -85 -95 -43 -39 -147 -98 -171 -98 -6 0 -29 -16 -51 -36 -22 -20 -44
-32 -48 -27 -4 4 -17 73 -29 153 -11 80 -28 192 -36 250 -9 58 -21 152 -26
210 -6 58 -31 251 -56 430 -38 272 -49 332 -69 366 -27 47 -68 69 -129 68 -22
-1 -263 -3 -536 -6 -272 -2 -500 -8 -506 -11 -13 -8 -813 -30 -1948 -53 -176
-4 -325 -11 -331 -15 -9 -8 -21 -49 -38 -134 -2 -11 -4 -3 -5 18 0 21 -6 57
-12 81 -18 71 -85 94 -154 51 -11 -7 -50 -15 -87 -18 l-66 -5 -21 58 c-17 46
-28 61 -55 74 -19 9 -45 16 -59 16 -37 0 -87 -46 -87 -79 0 -15 -6 -36 -14
-47 -13 -17 -31 -20 -163 -24 -113 -5 -156 -10 -180 -23 -33 -17 -63 -62 -63
-92 0 -8 -12 -34 -27 -57 -27 -40 -28 -48 -29 -172 -1 -71 0 -136 3 -143 3 -7
25 -22 49 -35 46 -23 60 -44 22 -33 -22 7 -79 52 -86 68 -2 4 -18 15 -35 24
-18 8 -48 29 -67 46 -19 16 -66 49 -105 74 -83 52 -125 55 -158 11 -29 -39
-17 -89 35 -139 37 -36 43 -47 49 -104 13 -108 35 -137 136 -185 101 -49 159
-86 228 -149 88 -80 75 -24 145 -641 28 -246 38 -335 55 -497 8 -77 22 -163
32 -190 9 -26 18 -82 19 -123 6 -194 13 -287 22 -312 6 -14 20 -122 31 -240
31 -325 40 -398 52 -422 22 -42 65 -78 127 -106 34 -16 62 -33 62 -39 0 -6
-18 -14 -41 -17 -73 -12 -89 -51 -39 -99 17 -16 30 -34 30 -42 0 -13 -39 -39
-52 -35 -12 3 -10 -26 2 -33 14 -9 104 -24 168 -30 30 -2 60 -9 68 -16 8 -7
35 -12 60 -11 37 0 44 -3 40 -15 -5 -12 -1 -14 14 -10 11 3 43 -3 71 -13 28
-11 76 -24 107 -30 32 -6 66 -15 77 -19 38 -16 92 -31 107 -31 8 0 57 -13 109
-29 75 -24 120 -31 219 -35 69 -4 154 -9 190 -12 36 -3 149 -1 252 6 142 8
193 8 210 -1 63 -32 128 -84 139 -113 25 -59 87 -158 123 -194 20 -19 35 -41
33 -46 -2 -7 -26 -10 -58 -7 -69 4 -157 2 -190 -5 -21 -4 -28 -1 -32 16 -4 17
-9 19 -24 11 -36 -19 -91 -41 -103 -41 -7 0 -18 8 -25 17 -11 14 -18 15 -61 4
-27 -7 -59 -18 -72 -24 -17 -8 -31 -8 -56 1 -44 16 -66 15 -66 -3 0 -8 -7 -15
-15 -15 -10 0 -12 6 -8 17 6 15 4 16 -9 5 -11 -9 -18 -9 -23 -3 -4 7 -13 7
-27 -2 -16 -9 -22 -9 -25 1 -7 18 -49 15 -69 -5 -28 -29 -66 -41 -91 -30 -12
5 -38 6 -60 2 -50 -11 -104 -12 -110 -3 -8 13 -36 9 -55 -9 -16 -14 -24 -15
-51 -5 -26 10 -33 9 -40 -3 -4 -8 -18 -15 -31 -15 -12 0 -31 -6 -41 -14 -14
-10 -26 -11 -47 -4 -22 8 -33 6 -54 -11 -18 -14 -34 -19 -50 -15 -20 5 -24 2
-24 -15 0 -26 -16 -27 -30 -1 -13 24 -76 38 -93 20 -9 -10 -9 -14 1 -17 16 -6
15 -23 -2 -23 -7 0 -16 9 -19 20 -5 18 -11 20 -68 14 -35 -3 -76 -13 -91 -22
-22 -13 -34 -14 -63 -5 -30 10 -37 9 -42 -3 -3 -9 0 -26 7 -39 7 -13 9 -28 6
-34 -4 -6 -4 -17 1 -23 11 -19 11 -91 0 -106 -7 -9 -4 -17 9 -27 17 -14 18
-16 3 -28 -18 -14 -19 -59 -1 -65 21 -7 13 -39 -13 -56 -35 -23 -151 -50 -345
-81 -91 -14 -199 -32 -240 -40 -41 -8 -138 -24 -215 -35 -239 -35 -323 -54
-504 -112 -132 -43 -178 -46 -252 -15 -29 13 -112 31 -349 78 -30 6 -59 15
-65 19 -5 4 -26 10 -45 13 -19 3 -48 8 -65 11 -16 3 -61 10 -100 16 -38 6 -86
16 -105 21 -19 5 -48 10 -65 12 -16 2 4 5 45 6 62 1 77 4 87 20 12 18 9 19
-51 17 -34 -2 -70 -7 -80 -13 -29 -16 -82 -4 -96 23 -13 23 -13 23 -27 4 -17
-24 -63 -27 -63 -5 0 18 -5 18 -30 5 -25 -13 -336 34 -373 57 -5 3 -24 7 -41
8 -17 1 -56 8 -86 14 -30 7 -67 15 -82 18 -36 7 -35 23 2 63 36 39 38 50 5 50
-13 0 -36 5 -50 12 -19 9 -24 16 -19 32 4 12 14 26 23 32 13 10 13 14 2 28
-11 14 -11 16 3 16 9 0 16 5 16 10 0 17 -38 11 -48 -7 -9 -15 -11 -14 -20 4
-9 17 -7 24 13 43 14 13 25 31 25 41 0 9 8 20 17 24 16 6 15 8 -6 25 -14 10
-30 16 -37 13 -30 -11 -20 60 23 155 44 98 60 368 27 451 -9 23 -14 45 -10 48
3 4 32 10 64 14 31 5 104 17 162 28 58 12 157 30 220 41 63 11 135 25 160 30
25 6 95 19 155 30 158 29 295 63 295 72 0 5 -11 13 -25 18 -30 11 -32 21 -5
38 13 8 20 23 20 41 0 27 3 30 51 36 54 8 69 0 69 -37 0 -25 32 -22 57 5 35
38 51 78 114 294 80 274 84 288 107 358 11 33 27 89 35 125 24 100 54 198 76
243 11 23 34 96 52 162 45 172 128 457 168 575 11 30 31 93 45 140 64 209 158
504 191 600 54 155 66 209 59 258 -10 69 -40 82 -189 82 -124 0 -1189 35
-1375 45 -126 7 -741 25 -858 25 l-82 0 4 1188 c2 653 6 1212 10 1242 14 127
39 287 56 365 38 173 87 348 120 430 5 11 20 52 35 90 289 756 906 1410 1645
1743 142 64 160 72 167 72 5 0 42 13 83 29 41 16 109 39 150 51 41 12 86 26
100 30 14 5 50 14 80 20 30 7 71 15 90 20 19 4 67 13 105 20 39 6 94 16 124
21 30 5 79 9 110 10 31 0 65 4 76 9 30 13 5615 13 5615 0z m-244 -712 c5 -7 9
-26 9 -43 0 -38 -24 -43 -48 -10 -14 19 -15 29 -7 45 12 23 33 26 46 8z
m-16131 -573 c40 -39 32 -96 -16 -120 -41 -22 -77 -18 -104 10 -52 51 -15 135
60 135 25 0 44 -8 60 -25z m3132 3 c47 -44 13 -138 -51 -138 -82 0 -125 82
-71 135 32 33 89 34 122 3z m1118 -3 c33 -33 32 -70 -4 -106 -55 -54 -141 -25
-141 49 0 76 91 112 145 57z m-10475 -27 c0 -13 -7 -63 -15 -113 -22 -137 -31
-125 90 -125 58 0 105 1 106 3 0 1 10 58 22 127 l22 125 53 3 c45 3 52 0 52
-15 0 -18 -25 -176 -35 -220 -5 -22 -3 -23 65 -23 63 0 71 -2 67 -17 -3 -10
-8 -35 -12 -55 l-6 -38 -68 0 -68 0 -12 -82 c-7 -46 -15 -93 -18 -105 -5 -22
-3 -23 62 -23 l68 0 -7 -37 c-3 -21 -6 -46 -6 -55 0 -15 -10 -18 -70 -18 -38
0 -70 -3 -70 -7 0 -12 -29 -195 -35 -220 -5 -20 -12 -23 -60 -23 -30 0 -55 1
-55 3 0 1 9 54 20 117 11 63 20 118 20 123 0 4 -49 7 -108 7 l-108 0 -20 -122
-19 -123 -56 -3 -56 -3 18 108 c27 154 30 143 -47 143 l-65 0 7 48 c3 26 8 50
11 55 2 4 33 7 68 7 74 0 65 -12 88 127 l14 82 -66 3 -66 3 8 52 8 52 67 3 67
3 21 125 c12 69 22 126 23 128 0 1 24 2 51 2 45 0 50 -2 50 -22z m1509 -15
c57 -219 146 -582 160 -656 20 -100 22 -100 46 18 19 91 163 654 171 667 3 4
38 8 79 8 l74 0 10 -37 c45 -172 163 -650 172 -698 l12 -60 23 114 c13 63 55
239 94 392 38 152 70 280 70 283 0 3 34 6 75 6 41 0 75 -3 75 -7 0 -3 -51
-196 -114 -427 -63 -232 -119 -440 -126 -463 l-11 -43 -83 0 -83 0 -82 309
c-45 170 -88 340 -95 378 -14 73 -18 71 -35 -24 -9 -49 -76 -306 -161 -624
l-11 -39 -82 0 -83 0 -125 463 c-69 254 -124 465 -122 470 2 4 35 7 73 7 l69
0 10 -37z m3341 -428 l0 -465 -70 0 -70 0 0 52 0 52 -37 -44 c-44 -51 -102
-80 -163 -80 -170 0 -281 122 -297 327 -15 191 71 347 213 389 102 29 189 4
253 -74 l30 -37 1 173 0 172 70 0 70 0 0 -465z m2170 0 l0 -465 -65 0 -65 0 0
50 c0 58 -8 62 -34 20 -10 -17 -36 -43 -59 -58 -36 -24 -50 -27 -121 -27 -92
0 -139 19 -192 77 -68 74 -95 152 -95 280 0 124 25 203 87 277 71 85 223 113
314 59 25 -15 54 -40 65 -57 11 -17 23 -31 28 -31 4 0 7 77 7 170 l0 170 65 0
65 0 0 -465z m1679 455 c181 -24 314 -147 352 -328 17 -85 7 -264 -20 -333
-47 -122 -123 -199 -238 -242 -51 -19 -84 -22 -270 -25 l-213 -4 0 464 c0 256
3 468 7 471 10 10 298 8 382 -3z m-7819 -465 l0 -465 -75 0 -75 0 -2 401 -3
401 -95 -69 c-52 -38 -101 -72 -107 -77 -10 -5 -13 9 -13 63 l0 70 97 70 97
71 88 0 88 0 0 -465z m3180 0 l0 -465 -70 0 -70 0 0 465 0 465 70 0 70 0 0
-465z m7910 0 l0 -465 -70 0 -70 0 0 465 0 465 70 0 70 0 0 -465z m-1150 320
l0 -85 70 0 70 0 0 -55 0 -54 -67 -3 -68 -3 -3 -180 c-5 -274 2 -295 88 -295
53 0 53 0 65 -72 7 -36 6 -37 -30 -44 -93 -17 -195 17 -230 77 -18 31 -20 57
-25 274 l-5 240 -52 3 -53 3 0 55 0 54 55 0 55 0 0 85 0 85 65 0 65 0 0 -85z
m-7754 -99 c65 -30 115 -80 150 -153 27 -54 29 -66 29 -178 0 -108 -3 -125
-26 -175 -54 -115 -142 -178 -263 -187 -220 -18 -369 148 -353 393 10 168 107
294 250 324 61 13 155 2 213 -24z m714 -41 l0 -65 -64 0 c-69 0 -111 -20 -150
-73 -20 -27 -21 -43 -24 -268 l-3 -239 -70 0 -69 0 0 350 0 350 70 0 70 0 0
-57 c1 -48 3 -55 12 -38 35 64 105 104 181 105 l47 0 0 -65z m3836 48 c76 -26
147 -103 173 -188 12 -38 21 -94 21 -131 l0 -64 -245 0 -245 0 0 -25 c0 -34
26 -94 53 -123 35 -38 76 -54 136 -55 65 0 109 19 143 63 l24 30 59 -13 c69
-16 72 -28 26 -87 -63 -79 -159 -116 -279 -107 -131 10 -215 68 -271 187 -23
49 -26 67 -26 170 0 105 2 120 28 175 42 89 108 152 187 176 46 14 165 10 216
-8z m2262 5 c34 -8 59 -25 94 -60 l48 -49 0 55 0 56 71 0 70 0 -3 -397 c-3
-389 -3 -399 -25 -440 -52 -96 -144 -138 -298 -138 -106 1 -145 12 -215 60
-32 22 -77 82 -68 89 1 2 26 15 54 29 l50 26 37 -38 c64 -66 183 -80 264 -30
49 30 63 71 63 180 l0 92 -40 -46 c-53 -60 -109 -81 -195 -75 -174 14 -273
153 -263 367 8 172 77 275 211 317 54 16 87 17 145 2z m-4749 -20 c4 -13 37
-136 72 -274 l63 -251 63 246 c35 135 66 259 69 274 7 28 7 28 78 25 l71 -3
67 -265 c37 -146 68 -269 68 -275 1 -5 12 36 25 92 28 119 114 445 119 450 2
2 35 3 73 1 l69 -3 -93 -310 c-51 -170 -98 -327 -104 -348 l-10 -38 -71 3 -71
3 -53 190 c-30 105 -61 223 -71 262 -9 40 -18 71 -21 69 -2 -3 -16 -53 -31
-113 -16 -59 -48 -177 -71 -261 l-44 -153 -70 3 -70 3 -97 325 c-54 179 -100
335 -104 348 -5 21 -3 22 65 22 64 0 71 -2 79 -22z m1101 -328 l0 -350 -70 0
-70 0 0 350 0 350 70 0 70 0 0 -350z m3140 0 l0 -350 -70 0 -70 0 0 350 0 350
70 0 70 0 0 -350z m1110 0 l0 -350 -70 0 -70 0 0 350 0 350 70 0 70 0 0 -350z
m1008 335 c29 -9 68 -30 88 -47 68 -60 69 -63 72 -365 l3 -273 -65 0 -66 0 0
46 0 47 -49 -46 c-68 -64 -149 -82 -246 -56 -99 27 -155 100 -155 203 0 131
70 181 299 211 63 8 120 20 127 26 17 14 18 66 1 99 -39 78 -199 77 -261 -2
l-23 -30 -57 13 c-31 7 -59 16 -62 21 -9 13 35 76 73 105 77 59 214 79 321 48z
m11468 -534 c-8 -13 -36 -15 -36 -3 0 4 5 13 12 20 14 14 34 0 24 -17z m114 9
c0 -5 -4 -10 -10 -10 -5 0 -10 5 -10 10 0 6 5 10 10 10 6 0 10 -4 10 -10z
m-20099 -1123 c45 -34 46 -92 2 -127 -37 -29 -79 -26 -114 9 -16 16 -29 37
-29 46 0 22 27 72 42 78 24 10 83 6 99 -6z m-2756 -46 c83 -37 142 -106 160
-188 l7 -33 -70 0 c-68 0 -70 1 -82 30 -37 89 -180 129 -280 78 -59 -31 -85
-68 -84 -120 1 -34 8 -48 37 -74 35 -32 49 -37 242 -93 101 -29 173 -76 210
-135 27 -44 30 -58 30 -126 0 -68 -3 -82 -30 -126 -34 -54 -104 -107 -168
-126 -65 -19 -232 -16 -294 5 -106 37 -176 115 -189 210 l-7 47 71 0 c70 0 70
0 77 -30 17 -76 90 -119 200 -120 85 0 148 27 182 79 35 52 31 96 -14 140 -33
32 -56 43 -168 75 -71 21 -149 46 -171 56 -224 97 -194 387 48 466 67 22 230
14 293 -15z m5455 -431 c91 -253 164 -463 163 -468 -2 -4 -35 -7 -75 -7 l-71
0 -43 120 -42 120 -184 3 -185 2 -12 -42 c-7 -24 -27 -80 -43 -125 l-30 -83
-74 0 c-41 0 -74 3 -74 7 0 8 320 914 327 926 2 4 43 7 91 7 l87 0 165 -460z
m-4210 -15 l0 -465 -70 0 -70 0 0 465 0 465 70 0 70 0 0 -465z m1110 320 l0
-85 70 0 70 0 0 -55 0 -54 -67 -3 -68 -3 -3 -180 c-5 -274 2 -295 88 -295 53
0 53 0 65 -72 7 -36 6 -37 -30 -44 -93 -17 -195 17 -230 77 -18 31 -20 57 -25
274 l-5 240 -52 3 -53 3 0 55 0 54 55 0 55 0 0 85 0 85 65 0 65 0 0 -85z
m-1590 -96 c108 -48 179 -162 187 -303 16 -245 -129 -409 -348 -394 -125 9
-214 71 -268 188 -36 79 -42 212 -12 308 34 113 125 199 234 222 58 12 153 2
207 -21z m2626 -3 c65 -30 115 -80 150 -153 27 -54 29 -66 29 -178 0 -108 -3
-125 -26 -175 -54 -115 -142 -178 -263 -187 -220 -18 -369 148 -353 393 10
168 107 294 250 324 61 13 155 2 213 -24z m5094 3 c25 -11 60 -34 78 -52 38
-36 76 -103 69 -121 -3 -7 -28 -17 -57 -24 -66 -15 -70 -15 -70 3 0 25 -59 83
-97 96 -46 15 -118 6 -152 -18 -66 -50 -95 -130 -89 -244 8 -137 62 -209 165
-217 74 -6 126 18 160 75 14 24 29 43 35 43 17 0 103 -23 110 -29 12 -11 -28
-87 -67 -126 -61 -60 -115 -80 -220 -80 -78 0 -97 4 -147 28 -111 55 -169 155
-176 304 -6 126 19 210 84 282 75 83 156 114 269 105 33 -3 80 -14 105 -25z
m-4325 10 c52 -14 126 -90 143 -145 8 -28 12 -124 12 -298 l0 -256 -70 0 -70
0 0 246 c0 230 -1 249 -20 279 -40 64 -123 82 -200 43 -76 -40 -80 -56 -80
-330 l0 -238 -70 0 -70 0 0 350 0 350 65 0 65 0 0 -62 0 -61 30 41 c58 80 158
110 265 81z m1960 -24 c22 -13 49 -37 60 -54 11 -17 23 -31 28 -31 4 0 7 25 7
55 l0 55 65 0 65 0 0 -392 c0 -434 -1 -437 -66 -502 -127 -127 -423 -109 -523
33 l-22 30 56 29 57 28 37 -37 c81 -82 238 -75 303 12 15 20 21 49 25 112 3
47 3 93 -1 103 -6 15 -11 12 -31 -18 -35 -51 -85 -79 -153 -85 -161 -15 -281
85 -312 258 -36 196 55 383 208 426 63 17 146 8 197 -22z m840 6 c113 -53 175
-167 175 -321 l0 -50 -250 0 -249 0 5 -32 c19 -108 89 -170 192 -171 66 0 109
19 144 64 l25 30 57 -15 c32 -8 60 -16 62 -19 2 -2 -10 -25 -26 -50 -99 -157
-374 -171 -505 -25 -67 73 -80 116 -80 258 0 114 2 130 26 181 33 70 87 124
153 155 77 36 190 34 271 -5z m803 -8 c35 -21 54 -43 77 -87 l30 -59 3 -263 4
-264 -70 0 -71 0 -3 243 c-3 209 -5 246 -21 274 -55 101 -216 94 -266 -11 -19
-39 -21 -60 -21 -274 l0 -232 -70 0 -70 0 0 350 0 350 65 0 64 0 3 -62 3 -62
28 43 c62 93 210 119 315 54z m-6196 -215 c3 -223 5 -246 23 -278 55 -93 188
-91 259 4 20 26 21 43 24 272 l3 244 69 0 70 0 0 -350 0 -350 -65 0 -64 0 -3
62 -3 62 -28 -43 c-62 -93 -210 -119 -315 -54 -35 21 -54 43 -77 87 l-30 59
-3 263 -4 264 70 0 71 0 3 -242z m1208 -108 l0 -350 -70 0 -70 0 0 350 0 350
70 0 70 0 0 -350z m6152 145 c38 -110 80 -236 93 -280 13 -44 26 -73 28 -65 3
8 32 96 65 195 33 99 75 219 92 268 l32 87 74 0 74 0 -15 -37 c-8 -21 -80
-209 -159 -417 -80 -209 -158 -398 -173 -420 -44 -62 -98 -87 -184 -87 -40 0
-76 4 -81 9 -6 6 -5 28 4 58 l14 49 52 0 c62 0 91 24 115 96 l15 46 -133 352
-133 352 76 -3 75 -3 69 -200z m12291 -1272 c30 -3 51 -11 56 -22 13 -25 45
-237 38 -255 -5 -11 -20 -16 -54 -17 -26 0 -133 -5 -238 -9 -104 -5 -302 -11
-440 -14 -137 -3 -376 -10 -530 -16 -154 -5 -426 -14 -605 -20 -179 -5 -467
-14 -640 -20 -173 -6 -373 -12 -445 -13 -71 -2 -137 -6 -145 -10 -12 -6 -18 5
-28 58 -6 35 -12 81 -12 101 0 47 -22 93 -65 134 -19 19 -35 38 -35 42 0 14
37 8 51 -8 10 -12 25 -15 58 -11 25 3 47 10 49 16 5 14 39 14 47 1 11 -17 116
-12 137 7 17 15 20 15 52 -2 33 -18 34 -18 70 3 34 20 51 22 214 22 97 0 236
5 307 10 72 5 291 10 487 10 299 1 361 -1 379 -13 16 -12 43 -14 117 -10 53 2
101 8 107 12 5 4 26 7 45 5 64 -4 144 -4 235 0 50 3 211 8 359 11 148 3 276 9
283 14 14 7 40 6 146 -6z m-3268 -83 c41 0 77 -4 80 -10 3 -5 -4 -22 -15 -38
-21 -28 -45 -118 -58 -217 l-7 -50 -45 0 -45 0 -8 70 c-4 39 -8 79 -9 90 -3
22 9 125 19 165 5 19 7 21 10 8 4 -15 16 -18 78 -18z m-359 -1 c21 -23 21 -80
3 -228 -10 -87 -14 -101 -29 -101 -15 0 -20 32 -26 156 -9 180 4 226 52 173z
m-426 -4 c7 -8 27 -15 45 -15 54 0 61 -17 47 -128 -7 -53 -16 -117 -20 -142
l-7 -45 -45 -2 c-25 -1 -53 1 -63 4 -28 8 -47 68 -47 154 0 43 -6 90 -12 105
-11 24 -10 28 6 38 11 6 26 19 35 28 20 21 45 22 61 3z m-16283 -91 c8 -22
-18 -37 -36 -20 -7 8 -10 19 -7 25 10 16 36 13 43 -5z m576 2 c8 -20 -20 -43
-35 -28 -14 14 -3 42 16 42 7 0 16 -6 19 -14z m3124 -2 c8 -22 -18 -37 -36
-20 -7 8 -10 19 -7 25 10 16 36 13 43 -5z m340 0 c3 -8 1 -20 -5 -26 -15 -15
-43 8 -35 28 7 19 32 18 40 -2z m2656 2 c8 -20 -20 -43 -35 -28 -14 14 -3 42
16 42 7 0 16 -6 19 -14z m3254 -2 c3 -8 1 -20 -5 -26 -15 -15 -43 8 -35 28 7
19 32 18 40 -2z m980 0 c8 -22 -18 -37 -36 -20 -7 8 -10 19 -7 25 10 16 36 13
43 -5z m340 0 c3 -8 1 -20 -5 -26 -15 -15 -43 8 -35 28 7 19 32 18 40 -2z
m-12526 -23 c28 -34 25 -96 -5 -126 l-24 -23 29 -51 c34 -60 35 -61 10 -61
-13 0 -29 17 -48 53 -25 47 -32 52 -65 55 l-38 3 0 -55 c0 -49 -2 -56 -20 -56
-19 0 -20 7 -20 146 l0 146 81 -4 c70 -3 83 -6 100 -27z m789 -116 c0 -122 -2
-145 -15 -145 -13 0 -15 23 -15 145 0 122 2 145 15 145 13 0 15 -23 15 -145z
m2900 0 c0 -138 -1 -145 -20 -145 -19 0 -20 7 -20 145 0 138 1 145 20 145 19
0 20 -7 20 -145z m340 93 c0 -49 1 -50 18 -35 29 26 70 21 103 -12 25 -25 29
-37 29 -81 0 -44 -4 -56 -29 -81 -33 -33 -74 -38 -103 -12 -17 15 -18 15 -18
0 0 -10 -8 -17 -20 -17 -19 0 -20 7 -20 145 0 138 1 145 20 145 17 0 20 -7 20
-52z m470 -93 c0 -138 -1 -145 -20 -145 -19 0 -20 7 -20 145 0 138 1 145 20
145 19 0 20 -7 20 -145z m360 0 c0 -138 -1 -145 -20 -145 -11 0 -20 7 -20 16
0 14 -2 14 -22 0 -49 -34 -108 -11 -128 50 -33 100 52 192 128 138 22 -15 22
-15 22 35 0 44 3 51 20 51 19 0 20 -7 20 -145z m890 0 c0 -122 -2 -145 -15
-145 -13 0 -15 23 -15 145 0 122 2 145 15 145 13 0 15 -23 15 -145z m2430 93
c0 -49 1 -50 18 -35 24 22 64 21 93 -2 20 -16 23 -29 27 -110 4 -87 4 -91 -17
-91 -20 0 -21 5 -21 79 0 84 -12 111 -50 111 -38 0 -50 -27 -50 -111 0 -72 -2
-79 -20 -79 -19 0 -20 7 -20 145 0 138 1 145 20 145 17 0 20 -7 20 -52z m480
0 c0 -49 1 -50 18 -35 24 22 64 21 93 -2 20 -16 23 -29 27 -110 4 -87 4 -91
-17 -91 -20 0 -21 5 -21 79 0 84 -12 111 -50 111 -38 0 -50 -27 -50 -111 0
-72 -2 -79 -20 -79 -19 0 -20 7 -20 145 0 138 1 145 20 145 17 0 20 -7 20 -52z
m620 12 l-7 -40 37 0 c36 0 38 2 44 40 4 24 12 40 20 40 11 0 13 -10 9 -40 -5
-36 -3 -40 16 -40 12 0 21 -6 21 -15 0 -9 -9 -15 -25 -15 -14 0 -25 -6 -25
-12 0 -7 -3 -23 -6 -35 -5 -19 -2 -23 15 -23 12 0 21 -6 21 -15 0 -9 -9 -15
-25 -15 -20 0 -25 -5 -25 -24 0 -34 -10 -56 -25 -56 -9 0 -12 11 -8 40 l6 40
-36 0 c-33 0 -36 -2 -42 -40 -4 -26 -12 -40 -22 -40 -12 0 -13 8 -8 40 6 36 5
40 -14 40 -12 0 -21 6 -21 15 0 9 9 15 25 15 18 0 25 5 25 19 0 11 3 26 6 35
4 12 0 16 -15 16 -28 0 -27 28 2 32 15 2 23 11 25 28 5 39 10 50 25 50 11 0
13 -9 7 -40z m270 -105 c0 -122 -2 -145 -15 -145 -13 0 -15 21 -15 125 0 69
-3 125 -7 125 -5 0 -19 -9 -33 -20 -30 -23 -40 -25 -40 -6 0 20 61 66 88 66
22 0 22 -1 22 -145z m218 68 c12 -43 26 -98 33 -123 l11 -45 31 123 c28 109
34 122 53 122 19 0 25 -11 42 -77 12 -43 26 -98 33 -123 l12 -45 31 123 c25
99 34 122 48 122 10 0 18 -3 18 -7 0 -3 -17 -68 -37 -145 -34 -125 -39 -138
-60 -138 -18 0 -24 8 -33 43 -6 23 -15 56 -20 72 -5 17 -14 50 -21 75 l-12 45
-31 -115 c-27 -98 -34 -115 -53 -118 -24 -4 -25 -1 -69 163 -14 55 -29 105
-31 112 -3 8 3 13 15 13 16 0 23 -14 40 -77z m772 -68 c0 -138 -1 -145 -20
-145 -19 0 -20 7 -20 145 0 138 1 145 20 145 19 0 20 -7 20 -145z m240 0 c0
-122 -2 -145 -15 -145 -9 0 -15 9 -15 22 l0 21 -23 -21 c-33 -31 -72 -28 -108
7 -25 25 -29 37 -29 81 0 44 4 56 29 81 33 33 74 38 109 13 22 -15 22 -15 22
35 0 39 4 51 15 51 13 0 15 -23 15 -145z m670 0 c0 -122 -2 -145 -15 -145 -9
0 -15 9 -15 22 l0 21 -23 -21 c-33 -31 -72 -28 -108 7 -25 25 -29 37 -29 81 0
44 4 56 29 81 33 33 74 38 109 13 22 -15 22 -15 22 35 0 39 4 51 15 51 13 0
15 -23 15 -145z m574 130 c46 -22 66 -62 66 -134 0 -56 -3 -65 -34 -99 -33
-36 -36 -37 -115 -40 l-81 -4 0 146 0 146 66 0 c38 0 79 -6 98 -15z m956 -130
c0 -122 -2 -145 -15 -145 -13 0 -15 23 -15 145 0 122 2 145 15 145 13 0 15
-23 15 -145z m-11850 100 c0 -18 5 -25 20 -25 11 0 20 -7 20 -15 0 -8 -9 -15
-20 -15 -19 0 -21 -5 -18 -77 3 -72 5 -78 26 -81 29 -4 29 -32 -1 -32 -48 0
-61 22 -65 109 -3 61 -8 81 -18 81 -8 0 -14 7 -14 15 0 8 7 15 15 15 9 0 15 9
15 25 0 18 5 25 20 25 15 0 20 -7 20 -25z m4270 0 c0 -18 5 -25 20 -25 11 0
20 -7 20 -15 0 -8 -9 -15 -20 -15 -19 0 -21 -5 -18 -77 3 -72 5 -78 26 -81 29
-4 29 -32 -1 -32 -48 0 -61 22 -65 109 -3 61 -8 81 -18 81 -8 0 -14 7 -14 15
0 8 7 15 15 15 9 0 15 9 15 25 0 18 5 25 20 25 15 0 20 -7 20 -25z m780 0 c0
-18 5 -25 20 -25 11 0 20 -7 20 -15 0 -8 -9 -15 -20 -15 -18 0 -20 -7 -20 -75
0 -71 1 -76 25 -85 33 -13 32 -30 -2 -30 -49 0 -63 24 -63 112 0 63 -3 78 -15
78 -8 0 -15 7 -15 15 0 8 7 15 15 15 9 0 15 9 15 25 0 18 5 25 20 25 15 0 20
-7 20 -25z m500 0 c0 -20 5 -25 25 -25 16 0 25 -6 25 -15 0 -9 -9 -15 -25 -15
-26 0 -26 0 -23 -77 3 -72 5 -78 26 -81 28 -4 29 -32 1 -32 -51 0 -59 15 -59
105 0 78 -2 85 -20 85 -11 0 -20 7 -20 15 0 8 9 15 20 15 15 0 20 7 20 25 0
16 6 25 15 25 9 0 15 -9 15 -25z m1370 0 c0 -18 5 -25 20 -25 11 0 20 -7 20
-15 0 -8 -9 -15 -20 -15 -19 0 -21 -5 -18 -77 3 -72 5 -78 26 -81 29 -4 29
-32 -1 -32 -48 0 -61 22 -65 109 -3 61 -8 81 -18 81 -8 0 -14 7 -14 15 0 8 7
15 15 15 9 0 15 9 15 25 0 18 5 25 20 25 15 0 20 -7 20 -25z m480 0 c0 -18 5
-25 20 -25 11 0 20 -7 20 -15 0 -8 -9 -15 -20 -15 -19 0 -21 -5 -18 -77 3 -72
5 -78 26 -81 29 -4 29 -32 -1 -32 -48 0 -61 22 -65 109 -3 61 -8 81 -18 81 -8
0 -14 7 -14 15 0 8 7 15 15 15 9 0 15 9 15 25 0 18 5 25 20 25 15 0 20 -7 20
-25z m4100 0 c0 -18 5 -25 20 -25 11 0 20 -7 20 -15 0 -8 -9 -15 -20 -15 -19
0 -21 -5 -18 -77 3 -72 5 -78 26 -81 29 -4 29 -32 -1 -32 -48 0 -61 22 -65
109 -3 61 -8 81 -18 81 -8 0 -14 7 -14 15 0 8 7 15 15 15 9 0 15 9 15 25 0 18
5 25 20 25 15 0 20 -7 20 -25z m-12420 -40 c25 -13 50 -61 50 -97 0 -5 -36 -8
-80 -8 -87 0 -100 -10 -60 -50 24 -24 63 -26 84 -5 16 17 46 20 46 6 0 -5 -12
-19 -26 -30 -39 -30 -87 -27 -126 8 -29 26 -33 35 -33 81 0 46 4 55 33 81 36
32 69 36 112 14z m136 -70 c16 -47 31 -85 34 -85 3 0 18 38 34 85 22 68 31 85
47 85 23 0 23 1 5 -41 -7 -19 -26 -67 -40 -106 -44 -117 -53 -108 -142 130 -4
13 -1 17 14 17 17 0 26 -15 48 -85z m325 56 c25 -25 29 -37 29 -81 0 -44 -4
-56 -29 -81 -22 -21 -39 -29 -66 -29 -27 0 -44 8 -66 29 -25 25 -29 37 -29 81
0 44 4 56 29 81 22 21 39 29 66 29 27 0 44 -8 66 -29z m219 -56 c0 -81 1 -86
25 -97 19 -9 29 -8 50 6 23 15 25 22 25 96 0 73 2 80 20 80 19 0 20 -7 20
-110 0 -103 -1 -110 -20 -110 -11 0 -20 7 -20 16 0 14 -2 14 -22 0 -32 -23
-65 -20 -93 9 -23 22 -25 32 -25 110 0 78 2 85 20 85 18 0 20 -7 20 -85z m360
-25 c0 -91 -3 -110 -15 -110 -12 0 -15 19 -15 110 0 91 3 110 15 110 12 0 15
-19 15 -110z m221 81 c25 -25 29 -37 29 -81 0 -44 -4 -56 -29 -81 -22 -21 -39
-29 -66 -29 -27 0 -44 8 -66 29 -25 25 -29 37 -29 81 0 44 4 56 29 81 22 21
39 29 66 29 27 0 44 -8 66 -29z m119 13 c0 -14 2 -14 22 0 32 23 65 20 93 -9
23 -22 25 -32 25 -110 0 -69 -3 -85 -15 -85 -12 0 -15 14 -15 68 0 37 -6 78
-13 92 -16 32 -50 37 -76 11 -18 -18 -21 -34 -21 -96 0 -60 -3 -75 -15 -75
-12 0 -15 19 -15 110 0 91 3 110 15 110 8 0 15 -7 15 -16z m240 -94 c0 -103
-1 -110 -20 -110 -19 0 -20 7 -20 110 0 103 1 110 20 110 19 0 20 -7 20 -110z
m220 95 c0 -9 -25 -49 -55 -89 -30 -40 -55 -76 -55 -79 0 -4 27 -7 60 -7 47 0
60 -3 60 -15 0 -12 -17 -15 -90 -15 -49 0 -90 4 -90 9 0 6 27 46 60 89 33 44
60 83 60 86 0 3 -25 6 -55 6 -42 0 -55 3 -55 15 0 12 16 15 80 15 65 0 80 -3
80 -15z m191 5 c22 -12 49 -61 49 -90 0 -18 -6 -20 -80 -20 -44 0 -80 -4 -80
-9 0 -19 43 -61 62 -61 11 0 33 8 49 17 15 9 31 14 34 11 10 -10 -6 -35 -31
-47 -44 -20 -83 -13 -115 18 -25 25 -29 37 -29 81 0 44 4 56 29 81 31 31 75
38 112 19z m248 -45 c11 -30 23 -66 27 -80 3 -14 9 -27 13 -29 4 -3 20 33 36
80 22 65 33 84 48 84 22 0 22 1 -37 -153 -23 -59 -50 -116 -59 -127 -20 -24
-67 -27 -67 -5 0 8 9 15 20 15 12 0 25 10 31 24 12 26 9 38 -44 179 -25 63
-25 67 -7 67 13 0 24 -15 39 -55z m333 27 c27 -25 32 -36 32 -81 1 -47 -2 -56
-32 -82 -44 -40 -93 -40 -133 0 -25 25 -29 37 -29 81 0 44 4 56 29 81 40 39
89 40 133 1z m118 -45 c0 -106 39 -148 90 -97 16 16 20 33 20 95 0 60 3 75 15
75 12 0 15 -19 15 -110 0 -91 -3 -110 -15 -110 -8 0 -15 7 -15 16 0 14 -2 14
-22 0 -31 -22 -68 -20 -95 6 -21 19 -23 30 -23 110 0 72 3 88 15 88 12 0 15
-15 15 -73z m240 56 c0 -15 1 -15 18 0 10 10 26 17 35 17 28 0 19 -24 -16 -40
-32 -15 -32 -15 -35 -97 -3 -75 -5 -83 -22 -83 -19 0 -20 7 -20 110 0 103 1
110 20 110 12 0 20 -7 20 -17z m358 1 c20 -14 22 -14 22 0 0 9 7 16 15 16 13
0 15 -21 15 -128 0 -118 -2 -130 -21 -148 -29 -26 -121 -27 -146 -1 -15 15
-16 19 -4 27 10 5 22 3 35 -6 42 -29 106 -4 106 42 0 24 -1 24 -22 10 -35 -25
-76 -20 -109 13 -25 25 -29 37 -29 81 0 44 4 56 29 81 33 33 74 38 109 13z
m351 2 c68 -36 68 -156 0 -192 -74 -38 -150 12 -149 98 1 84 76 131 149 94z
m485 -7 c25 -19 26 -25 26 -110 0 -72 -3 -89 -15 -89 -8 0 -15 7 -15 16 0 14
-2 14 -22 0 -51 -36 -118 -8 -118 49 0 40 17 52 85 62 50 6 58 13 49 37 -10
25 -51 31 -80 11 -14 -9 -33 -14 -42 -10 -15 6 -13 10 11 31 35 30 85 31 121
3z m576 -89 c0 -91 -3 -110 -15 -110 -12 0 -15 19 -15 110 0 91 3 110 15 110
12 0 15 -19 15 -110z m190 95 c7 -8 16 -15 21 -15 5 0 9 7 9 15 0 8 7 15 15
15 13 0 15 -20 15 -124 0 -104 -3 -127 -18 -146 -32 -40 -146 -35 -160 8 -4
14 34 17 43 2 8 -13 51 -13 76 0 12 7 19 21 19 42 0 29 -1 30 -18 15 -22 -20
-54 -22 -85 -5 -36 19 -46 40 -47 96 0 46 4 58 29 83 33 32 80 39 101 14z
m160 -95 c0 -103 -1 -110 -20 -110 -19 0 -20 7 -20 110 0 103 1 110 20 110 19
0 20 -7 20 -110z m330 90 c17 -17 20 -33 20 -110 0 -73 -3 -90 -15 -90 -8 0
-15 7 -15 16 0 14 -2 14 -22 0 -48 -34 -118 -8 -118 44 0 40 23 58 81 66 53 7
70 24 49 49 -16 20 -50 19 -79 -1 -24 -17 -50 -6 -36 16 20 33 106 39 135 10z
m424 -1 c19 -15 24 -25 17 -32 -7 -7 -16 -5 -29 6 -32 30 -87 17 -80 -19 2
-12 17 -22 44 -29 54 -13 74 -31 74 -66 0 -50 -89 -78 -138 -43 -24 17 -30 44
-8 44 7 0 19 -7 26 -15 16 -19 50 -19 76 -1 25 19 9 36 -54 56 -36 12 -49 22
-57 44 -8 25 -6 31 18 52 35 30 76 31 111 3z m246 4 c0 -15 1 -15 18 0 23 21
62 22 62 2 0 -8 -9 -15 -20 -15 -42 0 -60 -34 -60 -115 0 -60 -3 -75 -15 -75
-12 0 -15 19 -15 110 0 91 3 110 15 110 8 0 15 -7 15 -17z m254 -4 c25 -19 26
-25 26 -110 0 -72 -3 -89 -15 -89 -8 0 -15 7 -15 16 0 14 -2 14 -22 0 -51 -36
-118 -8 -118 49 0 40 17 52 85 62 50 6 58 13 49 37 -10 25 -51 31 -80 11 -14
-9 -33 -14 -42 -10 -15 6 -13 10 11 31 35 30 85 31 121 3z m367 -8 c19 -20 29
-40 29 -60 l0 -31 -80 0 c-78 0 -79 0 -71 -22 4 -13 20 -30 34 -38 24 -13 30
-13 62 4 37 20 51 17 41 -9 -8 -22 -55 -38 -96 -31 -52 8 -80 46 -80 107 0 65
38 109 95 109 27 0 44 -8 66 -29z m207 13 c20 -14 22 -14 22 0 0 9 9 16 20 16
19 0 20 -7 20 -115 0 -63 -5 -125 -11 -138 -22 -47 -107 -63 -150 -28 -32 26
-19 36 25 20 53 -19 90 -4 94 40 3 33 3 33 -20 17 -46 -32 -101 -15 -124 39
-18 44 -18 69 2 110 24 51 79 69 122 39z m166 -58 c14 -41 26 -79 26 -85 0 -6
5 -11 10 -11 6 0 10 5 10 11 0 6 12 44 26 85 20 56 31 74 45 74 11 0 19 -1 19
-3 0 -16 -104 -264 -116 -278 -20 -22 -64 -25 -64 -5 0 8 11 17 24 20 47 12
42 43 -39 249 -5 13 -2 17 13 17 15 0 25 -16 46 -74z m337 -13 c22 -85 23 -86
32 -53 29 115 39 140 57 140 14 0 23 -18 41 -86 l23 -86 22 82 c25 91 26 93
47 88 12 -2 9 -21 -17 -108 -26 -86 -35 -105 -51 -105 -15 0 -23 14 -40 72
-19 68 -35 101 -35 73 0 -7 -9 -44 -20 -81 -16 -52 -25 -69 -39 -69 -13 0 -23
21 -45 98 -16 53 -31 103 -33 110 -3 7 3 12 15 12 16 0 23 -15 43 -87z m319
-23 c0 -103 -1 -110 -20 -110 -19 0 -20 7 -20 110 0 103 1 110 20 110 19 0 20
-7 20 -110z m1061 81 c19 -20 29 -40 29 -60 l0 -31 -80 0 c-78 0 -79 0 -71
-22 4 -13 20 -30 34 -38 24 -13 30 -13 62 4 37 20 51 17 41 -9 -8 -22 -55 -38
-96 -31 -52 8 -80 46 -80 107 0 65 38 109 95 109 27 0 44 -8 66 -29z m1250 0
c25 -25 29 -37 29 -81 0 -44 -4 -56 -29 -81 -22 -21 -39 -29 -66 -29 -27 0
-44 8 -66 29 -25 25 -29 37 -29 81 0 44 4 56 29 81 22 21 39 29 66 29 27 0 44
-8 66 -29z m119 12 c0 -15 1 -15 18 0 23 21 62 22 62 2 0 -8 -9 -15 -20 -15
-42 0 -60 -34 -60 -115 0 -60 -3 -75 -15 -75 -12 0 -15 19 -15 110 0 91 3 110
15 110 8 0 15 -7 15 -17z m506 -63 c13 -41 23 -77 24 -80 1 -3 12 31 24 75 17
63 26 81 42 83 17 2 23 -8 38 -70 11 -40 21 -77 24 -83 3 -5 16 26 27 70 15
55 27 81 38 83 23 5 22 -5 -13 -119 -24 -78 -35 -99 -49 -99 -14 0 -23 18 -41
87 l-23 88 -25 -88 c-20 -69 -28 -87 -43 -87 -11 0 -19 2 -19 3 0 2 -13 48
-30 103 -35 116 -35 116 -13 112 12 -2 24 -26 39 -78z m324 -30 c0 -103 -1
-110 -20 -110 -19 0 -20 7 -20 110 0 103 1 110 20 110 19 0 20 -7 20 -110z
m440 95 c25 -13 50 -61 50 -97 0 -5 -36 -8 -80 -8 -87 0 -100 -10 -60 -50 24
-24 63 -26 84 -5 16 17 46 20 46 6 0 -5 -12 -19 -26 -30 -39 -30 -87 -27 -126
8 -29 26 -33 35 -33 81 0 46 4 55 33 81 36 32 69 36 112 14z m530 -95 c0 -91
-3 -110 -15 -110 -12 0 -15 19 -15 110 0 91 3 110 15 110 12 0 15 -19 15 -110z
m190 95 c7 -8 16 -15 21 -15 5 0 9 7 9 15 0 8 7 15 15 15 13 0 15 -20 15 -124
0 -104 -3 -127 -18 -146 -32 -40 -146 -35 -160 8 -4 14 34 17 43 2 8 -13 51
-13 76 0 12 7 19 21 19 42 0 29 -1 30 -18 15 -22 -20 -54 -22 -85 -5 -36 19
-46 40 -47 96 0 46 4 58 29 83 33 32 80 39 101 14z m160 -95 c0 -103 -1 -110
-20 -110 -19 0 -20 7 -20 110 0 103 1 110 20 110 19 0 20 -7 20 -110z m330 90
c17 -17 20 -33 20 -110 0 -73 -3 -90 -15 -90 -8 0 -15 7 -15 16 0 14 -2 14
-22 0 -48 -34 -118 -8 -118 44 0 40 23 58 81 66 53 7 70 24 49 49 -16 20 -50
19 -79 -1 -24 -17 -50 -6 -36 16 20 33 106 39 135 10z m8351 -86 c27 -33 -29
-66 -73 -42 -36 18 -10 57 38 58 12 0 27 -7 35 -16z m498 -86 c19 -50 65 -321
101 -598 12 -91 25 -191 29 -223 l8 -57 -61 -63 c-63 -66 -276 -374 -276 -400
0 -8 -7 -31 -15 -50 -8 -20 -15 -57 -15 -82 0 -41 2 -45 24 -45 14 0 27 -4 30
-9 3 -4 28 -6 56 -4 40 3 56 -1 77 -17 14 -11 31 -20 37 -20 6 0 25 -7 41 -16
17 -9 55 -20 84 -25 30 -5 70 -16 88 -24 28 -14 32 -19 23 -35 -9 -16 -18 -19
-53 -14 -55 7 -101 -10 -94 -35 3 -14 -4 -21 -32 -30 -20 -6 -45 -10 -56 -9
-11 1 -49 -8 -85 -20 -61 -19 -280 -48 -430 -56 -36 -2 -124 -10 -195 -18
-103 -12 -142 -20 -185 -42 -30 -15 -75 -35 -100 -43 -25 -8 -71 -28 -103 -44
-32 -16 -72 -29 -90 -29 -18 0 -51 -9 -75 -20 -38 -17 -49 -18 -85 -8 -23 6
-77 12 -119 12 l-77 1 -60 59 -59 59 -124 5 c-94 4 -131 9 -158 23 -19 11 -42
19 -51 19 -22 0 -121 31 -133 42 -6 4 4 13 22 19 39 13 42 32 5 27 -24 -3 -28
1 -31 24 -2 19 2 28 17 33 12 3 26 3 31 0 14 -8 192 15 205 26 5 5 17 9 27 9
30 0 21 25 -31 87 -26 32 -61 83 -77 113 -16 30 -49 83 -74 118 -25 35 -58 85
-73 110 -41 67 -85 110 -142 139 -27 14 -61 36 -75 48 -37 35 -146 89 -220
110 -55 15 -88 17 -215 11 l-150 -6 -50 77 c-52 81 -82 101 -92 64 -6 -24 -5
-23 -27 -15 -9 3 -16 16 -16 28 0 12 -5 27 -12 34 -9 9 -9 18 0 37 15 33 15
32 -4 39 -9 4 -23 1 -30 -5 -11 -9 -14 -8 -14 5 0 9 5 16 10 16 6 0 10 17 10
38 0 31 -5 40 -31 55 -17 9 -40 17 -50 17 -28 0 -91 68 -84 91 3 9 0 23 -8 30
-7 8 -16 22 -20 32 -4 11 -17 17 -39 17 -33 1 -33 1 -9 14 13 7 46 14 73 15
50 1 95 18 116 43 9 11 -1 27 -46 77 -33 36 -68 64 -82 66 -68 12 -120 28
-131 41 -6 8 -21 14 -33 14 -12 0 -39 9 -61 20 -22 11 -49 20 -62 20 -12 0
-25 5 -29 12 -5 8 11 9 62 4 100 -11 103 -12 110 -19 4 -4 20 -7 35 -7 15 0
34 -6 41 -13 17 -16 59 -35 132 -58 75 -24 96 -24 96 0 0 10 7 24 16 32 9 7
13 21 10 34 -5 21 -4 22 147 23 83 1 195 4 247 7 94 5 441 16 1100 35 682 19
745 22 760 27 8 2 155 7 325 10 171 3 312 7 314 9 2 2 55 4 118 4 108 0 114
-1 122 -22z m-7331 -196 c20 -12 26 -11 41 2 22 20 63 20 100 2 24 -13 31 -13
56 0 34 18 43 18 61 -1 13 -13 19 -13 42 -1 20 10 58 12 152 9 104 -5 128 -9
146 -24 14 -13 23 -16 31 -8 5 5 53 12 106 14 90 3 98 2 112 -18 l15 -21 16
22 c10 15 22 21 32 17 9 -3 104 -8 211 -9 166 -3 195 -6 203 -20 11 -20 42
-21 58 -1 11 13 32 15 119 10 58 -2 187 -7 286 -10 232 -6 301 -13 316 -31 6
-8 18 -14 25 -14 8 0 14 -5 14 -12 0 -36 -34 -189 -50 -223 -10 -22 -23 -56
-29 -75 -6 -19 -17 -57 -26 -84 -8 -27 -15 -61 -15 -75 0 -15 -9 -51 -20 -81
-11 -30 -32 -100 -45 -154 -14 -55 -32 -113 -40 -130 -7 -17 -17 -47 -20 -66
-4 -19 -13 -46 -20 -60 -7 -14 -15 -44 -19 -68 -3 -23 -17 -71 -30 -105 -13
-34 -36 -102 -51 -152 -15 -49 -33 -103 -40 -120 -21 -47 -52 -165 -58 -220
-6 -53 -51 -197 -87 -280 -11 -27 -26 -72 -31 -100 -6 -27 -19 -77 -29 -110
-10 -33 -27 -86 -36 -118 -11 -37 -26 -64 -40 -74 -25 -16 -4 -17 -534 33 -91
8 -255 22 -365 29 -110 8 -212 17 -226 20 -32 7 -59 -16 -59 -50 0 -15 -21
-46 -57 -84 -32 -34 -66 -71 -76 -83 -12 -15 -20 -19 -23 -11 -3 7 -19 28 -35
49 -16 20 -29 42 -29 49 0 6 -13 24 -30 40 -32 31 -39 55 -16 55 35 0 57 34
60 92 4 86 -5 91 -63 31 -62 -64 -83 -72 -120 -41 -15 13 -38 30 -50 38 l-21
14 0 1103 c0 988 2 1103 16 1111 23 13 146 9 172 -6z m-13555 -146 c8 -20 -20
-43 -35 -28 -14 14 -3 42 16 42 7 0 16 -6 19 -14z m2704 -2 c3 -8 1 -20 -5
-26 -15 -15 -43 8 -35 28 7 19 32 18 40 -2z m1196 2 c8 -20 -20 -43 -35 -28
-14 14 -3 42 16 42 7 0 16 -6 19 -14z m693 3 c3 -6 0 -17 -7 -25 -18 -17 -44
-2 -36 20 7 18 33 21 43 5z m1380 0 c3 -6 0 -17 -7 -25 -18 -17 -44 -2 -36 20
7 18 33 21 43 5z m1571 -5 c3 -8 1 -20 -5 -26 -15 -15 -43 8 -35 28 7 19 32
18 40 -2z m971 4 c-3 -7 -15 -15 -29 -18 -15 -4 -25 -14 -27 -28 -3 -18 2 -22
22 -22 16 0 26 -6 26 -15 0 -9 -9 -15 -25 -15 -25 0 -25 0 -25 -95 0 -88 -1
-95 -20 -95 -19 0 -20 7 -20 95 0 88 -1 95 -20 95 -11 0 -20 7 -20 15 0 8 9
15 19 15 12 0 21 10 26 27 4 16 11 34 17 40 14 17 81 17 76 1z m-9349 -24 c32
-26 41 -54 18 -54 -7 0 -20 9 -29 20 -25 29 -64 35 -94 15 -45 -29 -29 -56 51
-85 75 -27 94 -51 81 -103 -15 -62 -137 -76 -183 -22 -13 14 -23 30 -23 36 0
16 35 10 47 -10 25 -40 115 -33 128 11 10 28 -9 44 -75 62 -87 24 -116 79 -67
123 45 41 102 44 146 7z m361 -119 c0 -122 -2 -145 -15 -145 -13 0 -15 23 -15
145 0 122 2 145 15 145 13 0 15 -23 15 -145z m1295 13 c27 -73 50 -139 53
-145 2 -8 -4 -13 -15 -13 -14 0 -24 12 -33 40 l-13 40 -62 0 -62 0 -12 -40
c-9 -30 -17 -40 -32 -40 -13 0 -19 5 -17 13 97 268 101 277 123 277 19 0 28
-17 70 -132z m6255 -13 c0 -122 -2 -145 -15 -145 -13 0 -15 23 -15 145 0 122
2 145 15 145 13 0 15 -23 15 -145z m3330 0 c0 -138 -1 -145 -20 -145 -19 0
-20 7 -20 145 0 138 1 145 20 145 19 0 20 -7 20 -145z m90 0 c0 -122 -2 -145
-15 -145 -13 0 -15 23 -15 145 0 122 2 145 15 145 13 0 15 -23 15 -145z m320
0 c0 -122 -2 -145 -15 -145 -13 0 -15 23 -15 145 0 122 2 145 15 145 13 0 15
-23 15 -145z m480 0 c0 -122 -2 -145 -15 -145 -9 0 -15 9 -15 22 l0 21 -23
-21 c-33 -31 -72 -28 -108 7 -25 25 -29 37 -29 81 0 44 4 56 29 81 33 33 74
38 109 13 22 -15 22 -15 22 35 0 39 4 51 15 51 13 0 15 -23 15 -145z m-11430
100 c0 -20 5 -25 25 -25 16 0 25 -6 25 -15 0 -9 -9 -15 -25 -15 -26 0 -26 0
-23 -77 3 -72 5 -78 26 -81 28 -4 29 -32 1 -32 -51 0 -59 15 -59 105 0 78 -2
85 -20 85 -11 0 -20 7 -20 15 0 8 9 15 20 15 15 0 20 7 20 25 0 16 6 25 15 25
9 0 15 -9 15 -25z m5980 0 c0 -18 5 -25 20 -25 11 0 20 -7 20 -15 0 -8 -9 -15
-20 -15 -18 0 -20 -7 -20 -75 0 -71 1 -76 25 -85 33 -13 32 -30 -2 -30 -49 0
-63 24 -63 112 0 63 -3 78 -15 78 -8 0 -15 7 -15 15 0 8 7 15 15 15 9 0 15 9
15 25 0 18 5 25 20 25 15 0 20 -7 20 -25z m1570 0 c0 -20 5 -25 25 -25 16 0
25 -6 25 -15 0 -9 -9 -15 -25 -15 -26 0 -26 0 -23 -77 3 -72 5 -78 26 -81 28
-4 29 -32 1 -32 -51 0 -59 15 -59 105 0 78 -2 85 -20 85 -11 0 -20 7 -20 15 0
8 9 15 20 15 15 0 20 7 20 25 0 16 6 25 15 25 9 0 15 -9 15 -25z m-8008 -53
c27 -25 32 -36 32 -81 1 -47 -2 -56 -32 -82 -44 -40 -93 -40 -133 0 -25 25
-29 37 -29 81 0 44 4 56 29 81 40 39 89 40 133 1z m218 -51 c0 -83 12 -111 47
-111 39 0 53 30 53 112 0 71 2 78 20 78 19 0 20 -7 20 -110 0 -103 -1 -110
-20 -110 -12 0 -20 7 -20 17 0 15 -1 15 -18 0 -25 -22 -64 -21 -93 2 -21 17
-24 29 -27 110 -4 87 -3 91 17 91 20 0 21 -5 21 -79z m370 -31 c0 -103 -1
-110 -20 -110 -19 0 -20 7 -20 110 0 103 1 110 20 110 19 0 20 -7 20 -110z
m212 82 c27 -25 32 -36 32 -81 1 -47 -2 -56 -32 -82 -44 -40 -93 -40 -133 0
-25 25 -29 37 -29 81 0 44 4 56 29 81 40 39 89 40 133 1z m118 12 c0 -14 2
-14 22 0 31 22 74 20 98 -4 17 -17 20 -33 20 -110 0 -73 -3 -90 -15 -90 -12 0
-15 15 -15 74 0 89 -19 123 -64 112 -34 -8 -46 -40 -46 -122 0 -50 -3 -64 -15
-64 -12 0 -15 19 -15 110 0 91 3 110 15 110 8 0 15 -7 15 -16z m718 0 c20 -14
22 -14 22 0 0 9 9 16 20 16 19 0 20 -7 20 -115 0 -63 -5 -125 -11 -138 -22
-47 -107 -63 -150 -28 -32 26 -19 36 25 20 53 -19 90 -4 94 40 3 33 3 33 -20
17 -46 -32 -101 -15 -124 39 -18 44 -18 69 2 110 24 51 79 69 122 39z m273
-13 c19 -20 29 -40 29 -60 l0 -31 -80 0 c-78 0 -79 0 -71 -22 4 -13 20 -30 34
-38 24 -13 30 -13 62 4 37 20 51 17 41 -9 -8 -22 -55 -38 -96 -31 -52 8 -80
46 -80 107 0 65 38 109 95 109 27 0 44 -8 66 -29z m119 13 c0 -14 2 -14 22 0
32 23 65 20 93 -9 23 -22 25 -32 25 -110 0 -78 -2 -85 -20 -85 -17 0 -19 8
-22 87 -3 85 -4 88 -30 97 -22 8 -32 6 -48 -9 -17 -15 -20 -30 -20 -97 0 -71
-2 -78 -20 -78 -19 0 -20 7 -20 110 0 103 1 110 20 110 11 0 20 -7 20 -16z
m347 -8 c22 -20 26 -27 16 -37 -10 -10 -17 -9 -33 9 -43 46 -102 13 -104 -57
-1 -70 60 -105 105 -60 16 16 24 18 33 9 8 -9 4 -17 -17 -36 -40 -34 -90 -32
-128 5 -25 25 -29 37 -29 81 0 44 4 56 29 81 38 37 88 39 128 5z m112 -31 c11
-30 23 -66 27 -80 3 -14 9 -27 13 -29 4 -3 20 33 36 80 22 65 33 84 48 84 22
0 22 1 -37 -153 -23 -59 -50 -116 -59 -127 -20 -24 -67 -27 -67 -5 0 8 9 15
20 15 12 0 25 10 31 24 12 26 9 38 -44 179 -25 63 -25 67 -7 67 13 0 24 -15
39 -55z m561 39 c0 -14 2 -14 22 0 44 31 97 16 123 -34 51 -99 -39 -213 -123
-154 -22 15 -22 15 -22 -40 0 -43 -3 -56 -15 -56 -13 0 -15 23 -15 150 0 127
2 150 15 150 8 0 15 -7 15 -16z m250 -94 c0 -103 -1 -110 -20 -110 -19 0 -20
7 -20 110 0 103 1 110 20 110 19 0 20 -7 20 -110z m212 82 c27 -25 32 -36 32
-81 1 -47 -2 -56 -32 -82 -44 -40 -93 -40 -133 0 -25 25 -29 37 -29 81 0 44 4
56 29 81 40 39 89 40 133 1z m118 12 c0 -14 2 -14 22 0 31 22 74 20 98 -4 17
-17 20 -33 20 -110 0 -73 -3 -90 -15 -90 -12 0 -15 15 -15 74 0 89 -19 123
-64 112 -34 -8 -46 -40 -46 -122 0 -50 -3 -64 -15 -64 -12 0 -15 19 -15 110 0
91 3 110 15 110 8 0 15 -7 15 -16z m340 1 c25 -13 50 -61 50 -97 0 -5 -36 -8
-80 -8 -87 0 -100 -10 -60 -50 24 -24 63 -26 84 -5 16 17 46 20 46 6 0 -5 -12
-19 -26 -30 -39 -30 -87 -27 -126 8 -29 26 -33 35 -33 81 0 46 4 55 33 81 36
32 69 36 112 14z m231 5 c22 -12 49 -61 49 -90 0 -18 -6 -20 -80 -20 -44 0
-80 -4 -80 -9 0 -19 43 -61 62 -61 11 0 33 8 49 17 15 9 31 14 34 11 10 -10
-6 -35 -31 -47 -44 -20 -83 -13 -115 18 -25 25 -29 37 -29 81 0 44 4 56 29 81
31 31 75 38 112 19z m139 0 c0 -7 6 -7 19 0 11 5 27 10 35 10 27 0 17 -24 -17
-40 -32 -15 -32 -15 -35 -97 -3 -75 -5 -83 -22 -83 -19 0 -20 7 -20 110 0 103
1 110 20 110 11 0 20 -5 20 -10z m150 -100 c0 -103 -1 -110 -20 -110 -19 0
-20 7 -20 110 0 103 1 110 20 110 19 0 20 -7 20 -110z m90 94 c0 -14 2 -14 22
0 30 21 71 20 98 -2 19 -16 23 -31 28 -110 5 -89 4 -92 -17 -92 -20 0 -21 5
-21 79 0 84 -12 111 -50 111 -38 0 -50 -27 -50 -111 0 -72 -2 -79 -20 -79 -19
0 -20 7 -20 110 0 91 3 110 15 110 8 0 15 -7 15 -16z m338 0 c20 -14 22 -14
22 0 0 9 7 16 15 16 13 0 15 -21 15 -128 0 -118 -2 -130 -21 -148 -29 -26
-121 -27 -146 -1 -15 15 -16 19 -4 27 10 5 22 3 35 -6 42 -29 106 -4 106 42 0
24 -1 24 -22 10 -35 -25 -76 -20 -109 13 -25 25 -29 37 -29 81 0 44 4 56 29
81 33 33 74 38 109 13z m262 -94 c0 -91 -3 -110 -15 -110 -12 0 -15 19 -15
110 0 91 3 110 15 110 12 0 15 -19 15 -110z m100 94 c0 -14 2 -14 22 0 32 23
65 20 93 -9 23 -22 25 -32 25 -110 0 -78 -2 -85 -20 -85 -17 0 -19 8 -22 87
-3 85 -4 88 -30 97 -22 8 -32 6 -48 -9 -17 -15 -20 -30 -20 -97 0 -71 -2 -78
-20 -78 -19 0 -20 7 -20 110 0 103 1 110 20 110 11 0 20 -7 20 -16z m230 0 c0
-14 2 -14 22 0 31 22 74 20 98 -4 17 -17 20 -33 20 -110 0 -73 -3 -90 -15 -90
-12 0 -15 15 -15 74 0 89 -19 123 -64 112 -34 -8 -46 -40 -46 -122 0 -50 -3
-64 -15 -64 -12 0 -15 19 -15 110 0 91 3 110 15 110 8 0 15 -7 15 -16z m361
-13 c25 -25 29 -37 29 -81 0 -44 -4 -56 -29 -81 -22 -21 -39 -29 -66 -29 -27
0 -44 8 -66 29 -25 25 -29 37 -29 81 0 44 4 56 29 81 22 21 39 29 66 29 27 0
44 -8 66 -29z m125 -56 c16 -47 31 -85 34 -85 3 0 18 38 34 85 22 68 31 85 47
85 23 0 23 1 5 -41 -7 -19 -26 -67 -40 -106 -44 -117 -53 -108 -142 130 -4 13
-1 17 14 17 17 0 26 -15 48 -85z m314 65 c17 -17 20 -33 20 -110 0 -73 -3 -90
-15 -90 -8 0 -15 7 -15 16 0 14 -2 14 -22 0 -48 -34 -118 -8 -118 44 0 40 23
58 81 66 53 7 70 24 49 49 -16 20 -50 19 -79 -1 -24 -17 -50 -6 -36 16 20 33
106 39 135 10z m250 -90 c0 -91 -3 -110 -15 -110 -12 0 -15 19 -15 110 0 91 3
110 15 110 12 0 15 -19 15 -110z m114 18 l32 -87 29 85 c26 78 46 107 62 91 3
-3 -12 -54 -33 -111 -53 -144 -65 -144 -120 5 -39 102 -40 110 -21 107 15 -2
27 -23 51 -90z m317 63 c19 -20 29 -40 29 -60 l0 -31 -75 0 c-68 0 -75 -2 -75
-19 0 -41 74 -67 100 -36 14 16 50 21 50 6 0 -18 -53 -51 -81 -51 -65 0 -109
45 -109 112 1 94 98 141 161 79z m330 8 c27 -27 10 -52 -19 -26 -30 28 -82 19
-82 -14 0 -14 14 -22 56 -35 67 -19 87 -48 60 -88 -28 -43 -123 -45 -150 -3
-17 26 1 32 38 12 29 -16 39 -17 61 -7 40 18 27 41 -34 62 -76 26 -90 52 -46
95 31 32 86 34 116 4z m231 -7 c27 -25 32 -36 32 -81 1 -47 -2 -56 -32 -82
-44 -40 -93 -40 -133 0 -25 25 -29 37 -29 81 0 44 4 56 29 81 40 39 89 40 133
1z m218 -51 c0 -83 12 -111 47 -111 39 0 53 30 53 112 0 71 2 78 20 78 19 0
20 -7 20 -110 0 -103 -1 -110 -20 -110 -12 0 -20 7 -20 17 0 15 -1 15 -18 0
-25 -22 -64 -21 -93 2 -21 17 -24 29 -27 110 -4 87 -3 91 17 91 20 0 21 -5 21
-79z m370 -31 c0 -103 -1 -110 -20 -110 -19 0 -20 7 -20 110 0 103 1 110 20
110 19 0 20 -7 20 -110z m212 82 c27 -25 32 -36 32 -81 1 -47 -2 -56 -32 -82
-44 -40 -93 -40 -133 0 -25 25 -29 37 -29 81 0 44 4 56 29 81 40 39 89 40 133
1z m118 12 c0 -14 2 -14 22 0 31 22 74 20 98 -4 17 -17 20 -33 20 -110 0 -73
-3 -90 -15 -90 -12 0 -15 15 -15 74 0 89 -19 123 -64 112 -34 -8 -46 -40 -46
-122 0 -50 -3 -64 -15 -64 -12 0 -15 19 -15 110 0 91 3 110 15 110 8 0 15 -7
15 -16z m341 -5 c27 -27 10 -52 -19 -26 -30 28 -82 19 -82 -14 0 -14 14 -22
56 -35 67 -19 87 -48 60 -88 -28 -43 -123 -45 -150 -3 -17 26 1 32 38 12 29
-16 39 -17 61 -7 40 18 27 41 -34 62 -76 26 -90 52 -46 95 31 32 86 34 116 4z
m480 -8 c25 -25 29 -37 29 -81 0 -44 -4 -56 -29 -81 -22 -21 -39 -29 -66 -29
-27 0 -44 8 -66 29 -25 25 -29 37 -29 81 0 44 4 56 29 81 22 21 39 29 66 29
27 0 44 -8 66 -29z m119 12 c0 -15 1 -15 18 0 23 21 62 22 62 2 0 -8 -9 -15
-20 -15 -42 0 -60 -34 -60 -115 0 -60 -3 -75 -15 -75 -12 0 -15 19 -15 110 0
91 3 110 15 110 8 0 15 -7 15 -17z m260 -56 c0 -106 39 -148 90 -97 16 16 20
33 20 95 0 60 3 75 15 75 12 0 15 -19 15 -110 0 -91 -3 -110 -15 -110 -8 0
-15 7 -15 16 0 14 -2 14 -22 0 -31 -22 -68 -20 -95 6 -21 19 -23 30 -23 110 0
72 3 88 15 88 12 0 15 -15 15 -73z m240 57 c0 -14 2 -14 22 0 32 23 65 20 93
-9 23 -22 25 -32 25 -110 0 -69 -3 -85 -15 -85 -12 0 -15 14 -15 68 0 37 -6
78 -13 92 -16 32 -50 37 -76 11 -18 -18 -21 -34 -21 -96 0 -60 -3 -75 -15 -75
-12 0 -15 19 -15 110 0 91 3 110 15 110 8 0 15 -7 15 -16z m240 -1 c0 -15 1
-15 18 0 29 26 70 21 103 -12 25 -25 29 -37 29 -81 0 -44 -4 -56 -29 -81 -33
-33 -74 -38 -103 -12 -17 15 -18 14 -18 -40 0 -50 -2 -57 -20 -57 -19 0 -20 7
-20 150 0 143 1 150 20 150 12 0 20 -7 20 -17z m350 -3 c17 -17 20 -33 20
-110 0 -73 -3 -90 -15 -90 -8 0 -15 7 -15 16 0 14 -2 14 -22 0 -48 -34 -118
-8 -118 44 0 40 23 58 81 66 53 7 70 24 49 49 -16 20 -50 19 -79 -1 -24 -17
-50 -6 -36 16 20 33 106 39 135 10z m120 3 c0 -15 1 -15 18 0 23 21 62 22 62
2 0 -8 -9 -15 -20 -15 -42 0 -60 -34 -60 -115 0 -60 -3 -75 -15 -75 -12 0 -15
19 -15 110 0 91 3 110 15 110 8 0 15 -7 15 -17z m255 -8 c23 -22 25 -32 25
-110 0 -78 -2 -85 -20 -85 -11 0 -20 4 -20 9 0 5 -12 5 -28 -1 -57 -22 -123
23 -107 72 8 24 60 50 100 50 30 0 43 24 25 45 -16 20 -49 19 -71 -1 -11 -10
-25 -14 -36 -9 -16 6 -15 9 10 31 38 32 90 32 122 -1z m416 6 c21 -17 24 -29
27 -110 4 -87 3 -91 -17 -91 -12 0 -21 6 -21 16 0 14 -2 14 -22 0 -48 -34
-118 -6 -118 47 0 34 29 56 84 63 50 7 66 24 46 49 -16 20 -50 19 -79 -1 -23
-17 -46 -8 -33 12 24 36 97 44 133 15z m320 9 c22 -12 49 -61 49 -90 0 -18 -6
-20 -80 -20 -44 0 -80 -4 -80 -9 0 -19 43 -61 62 -61 11 0 33 8 49 17 15 9 31
14 34 11 10 -10 -6 -35 -31 -47 -44 -20 -83 -13 -115 18 -25 25 -29 37 -29 81
0 44 4 56 29 81 31 31 75 38 112 19z m-8774 -184 c-3 -8 -11 -33 -17 -55 -7
-25 -17 -41 -26 -41 -10 0 -14 6 -11 18 3 9 8 34 12 55 4 29 10 37 27 37 13 0
18 -5 15 -14z m14553 -114 c25 -6 79 -16 120 -23 41 -7 97 -21 123 -31 26 -10
56 -18 66 -18 10 0 44 -8 77 -19 32 -10 70 -21 84 -24 68 -16 186 -132 237
-232 11 -22 29 -58 41 -80 11 -22 27 -67 35 -100 9 -33 22 -78 31 -100 8 -22
15 -70 16 -107 0 -37 4 -89 9 -115 22 -111 31 -171 35 -216 2 -27 7 -51 10
-55 4 -3 22 -5 40 -4 41 3 62 -15 76 -68 6 -21 19 -58 30 -82 11 -24 20 -62
20 -84 0 -48 32 -160 61 -210 10 -19 19 -43 19 -54 0 -21 -24 -25 -215 -35
-60 -4 -129 -8 -152 -10 -54 -5 -588 -38 -630 -38 -18 -1 -37 3 -42 8 -15 16
-31 128 -41 285 -5 80 -16 170 -24 200 -8 30 -17 105 -20 165 -6 123 -18 245
-40 415 -52 410 -79 659 -73 675 7 17 9 16 35 -7 15 -14 47 -30 72 -36z
m-17669 -311 c19 -15 21 -22 12 -32 -9 -9 -15 -8 -28 5 -21 20 -59 21 -75 1
-17 -21 1 -41 43 -49 75 -14 100 -66 51 -105 -15 -12 -41 -21 -59 -21 -31 0
-85 32 -85 51 0 15 36 10 50 -6 24 -29 85 -13 78 21 -2 12 -19 23 -47 31 -59
17 -73 30 -69 67 5 53 83 75 129 37z m119 -66 c0 -81 1 -86 25 -97 19 -9 29
-8 50 6 23 15 25 22 25 96 0 73 2 80 20 80 19 0 20 -7 20 -110 0 -103 -1 -110
-20 -110 -11 0 -20 7 -20 16 0 14 -2 14 -22 0 -32 -23 -65 -20 -93 9 -23 22
-25 32 -25 110 0 78 2 85 20 85 18 0 20 -7 20 -85z m347 61 c22 -20 26 -27 16
-37 -10 -10 -17 -9 -33 9 -43 46 -102 13 -104 -57 -1 -70 60 -105 105 -60 16
16 24 18 33 9 8 -9 4 -17 -17 -36 -40 -34 -90 -32 -128 5 -25 25 -29 37 -29
81 0 44 4 56 29 81 38 37 88 39 128 5z m230 0 c22 -20 26 -27 16 -37 -10 -10
-17 -9 -33 9 -43 46 -102 13 -104 -57 -1 -70 60 -105 105 -60 16 16 24 18 33
9 8 -9 4 -17 -17 -36 -40 -34 -90 -32 -128 5 -25 25 -29 37 -29 81 0 44 4 56
29 81 38 37 88 39 128 5z m214 14 c22 -12 49 -61 49 -90 0 -18 -6 -20 -80 -20
-44 0 -80 -4 -80 -9 0 -19 43 -61 62 -61 11 0 33 8 49 17 15 9 31 14 34 11 10
-10 -6 -35 -31 -47 -44 -20 -83 -13 -115 18 -25 25 -29 37 -29 81 0 44 4 56
29 81 31 31 75 38 112 19z m230 -9 c19 -16 21 -22 12 -32 -10 -10 -16 -9 -31
4 -23 21 -56 22 -72 2 -17 -21 -4 -34 57 -54 37 -12 50 -23 58 -45 8 -25 6
-31 -18 -52 -40 -34 -113 -29 -139 10 -19 28 12 37 38 11 20 -19 58 -19 74 0
18 22 6 42 -32 50 -53 11 -78 32 -78 65 0 55 82 81 131 41z m210 0 c19 -15 21
-22 12 -32 -9 -9 -15 -8 -28 5 -21 20 -59 21 -75 1 -17 -21 1 -41 43 -49 75
-14 100 -66 51 -105 -15 -12 -41 -21 -59 -21 -31 0 -85 32 -85 51 0 15 36 10
50 -6 24 -29 85 -13 78 21 -2 12 -19 23 -47 31 -59 17 -73 30 -69 67 5 53 83
75 129 37z m129 -171 c0 -24 -26 -38 -42 -22 -16 16 -2 42 22 42 13 0 20 -7
20 -20z m20583 -466 c9 -4 17 -10 17 -15 0 -13 -34 -11 -48 3 -16 16 -15 31 1
24 6 -3 20 -9 30 -12z m57 -34 c0 -5 -4 -10 -9 -10 -6 0 -13 5 -16 10 -3 6 1
10 9 10 9 0 16 -4 16 -10z m-2536 -38 c15 -25 -51 -49 -105 -37 -42 10 -31 29
22 36 69 9 77 10 83 1z m-147 -28 c-3 -3 -12 -4 -19 -1 -8 3 -5 6 6 6 11 1 17
-2 13 -5z m2247 -152 c2 -4 1 -14 -4 -21 -10 -17 -31 -5 -23 14 6 16 19 20 27
7z m-150 -12 c-15 -15 -84 -25 -84 -12 0 12 22 19 65 21 20 1 26 -2 19 -9z
m-19879 -547 l29 -66 -34 -28 c-31 -26 -32 -29 -20 -59 15 -36 114 -130 138
-130 8 0 27 14 41 31 l26 31 68 -28 c73 -30 74 -31 53 -109 l-13 -50 -59 2
c-198 5 -384 191 -388 388 l-1 60 45 12 c82 21 84 20 115 -54z m12656 -10 l19
-28 -28 -6 c-43 -9 -62 6 -62 51 0 39 0 39 26 25 15 -7 35 -26 45 -42z
m-11902 -9 c41 -34 44 -93 5 -129 -24 -23 -25 -23 -4 -30 11 -3 27 -20 36 -37
13 -26 14 -38 5 -70 -17 -54 -49 -68 -161 -68 l-90 0 0 180 0 180 89 0 c82 0
92 -2 120 -26z m741 -76 l0 -103 53 58 c45 51 56 58 82 55 l30 -3 -47 -51
c-27 -28 -48 -57 -48 -63 0 -7 19 -38 43 -69 63 -83 63 -82 25 -82 -29 1 -38
8 -71 56 -21 30 -44 53 -50 51 -7 -2 -13 -27 -15 -55 -3 -50 -4 -52 -33 -52
l-29 0 0 180 0 180 30 0 30 0 0 -102z m1350 -78 l0 -180 -25 0 -25 0 0 180 0
180 25 0 25 0 0 -180z m120 0 l0 -180 -25 0 -25 0 0 180 0 180 25 0 25 0 0
-180z m-1921 65 c81 -68 58 -218 -37 -244 -79 -22 -148 25 -159 108 -12 88 44
161 122 161 32 0 51 -7 74 -25z m290 0 c81 -68 58 -218 -37 -244 -79 -22 -148
25 -159 108 -12 88 44 161 122 161 32 0 51 -7 74 -25z m684 -4 c19 -19 22 -35
25 -131 l4 -110 -31 0 c-17 0 -31 4 -31 9 0 6 -16 3 -36 -5 -28 -12 -43 -13
-70 -4 -39 13 -54 35 -54 79 0 42 28 64 98 76 47 9 58 14 60 33 6 40 -87 51
-100 11 -5 -16 -48 -2 -48 17 0 8 15 23 33 35 42 27 119 22 150 -10z m387 14
c38 -19 58 -54 39 -66 -22 -13 -33 -11 -47 11 -8 14 -23 20 -46 20 -56 0 -84
-54 -65 -123 16 -59 72 -76 107 -33 13 18 25 23 41 19 28 -7 27 -24 -6 -55
-57 -53 -142 -41 -183 24 -17 26 -20 45 -17 92 3 53 7 62 40 92 42 38 88 45
137 19z m291 -14 c28 -29 29 -32 29 -135 l0 -106 -25 0 c-15 0 -25 6 -25 14 0
11 -8 10 -37 -5 -63 -33 -133 3 -133 66 0 43 28 66 98 80 46 9 58 15 60 33 2
15 -4 25 -23 34 -22 10 -30 8 -54 -10 -18 -13 -37 -19 -50 -15 -24 6 -26 13
-8 35 20 26 50 37 95 38 35 0 49 -6 73 -29z m10008 4 c16 0 91 -65 91 -80 0
-7 -8 -15 -17 -17 -14 -3 -13 -8 11 -30 16 -14 35 -24 41 -21 21 8 28 -17 10
-37 -11 -12 -14 -26 -10 -39 5 -15 2 -21 -9 -21 -9 0 -16 6 -16 13 0 8 -9 22
-20 32 -11 10 -20 22 -20 27 0 6 -9 21 -20 35 -11 14 -20 34 -20 44 0 10 -9
23 -20 29 -24 13 -43 57 -35 79 5 13 7 14 15 1 5 -8 13 -15 19 -15z m157 -272
c15 -16 17 -16 30 2 20 28 29 10 17 -35 -5 -22 -7 -37 -3 -35 12 7 36 -27 50
-68 16 -51 34 -58 105 -41 55 13 107 23 225 44 25 4 72 13 105 19 33 6 96 15
140 20 44 6 116 17 160 25 85 17 179 31 258 40 47 6 47 5 47 -24 0 -27 -3 -29
-47 -35 -49 -7 -88 -14 -228 -40 -44 -9 -127 -24 -185 -35 -58 -10 -179 -33
-270 -50 -91 -18 -184 -34 -208 -37 -26 -4 -48 -13 -55 -23 -9 -16 -14 -13
-39 27 -27 42 -30 44 -43 27 -13 -18 -14 -18 -20 7 -3 14 -5 29 -3 35 2 5 -14
44 -36 87 -21 42 -35 84 -32 92 7 19 11 19 32 -2z m8736 -364 c30 -61 51 -140
41 -150 -10 -10 -237 -52 -350 -64 -45 -5 -63 -4 -63 5 0 7 8 9 20 5 22 -7 24
-2 10 25 -8 16 0 25 53 63 86 61 250 157 262 154 6 -2 18 -19 27 -38z m-438
-239 c-5 -5 -25 -12 -44 -15 l-35 -6 25 15 c28 17 70 22 54 6z m-4814 -440 c0
-5 -2 -10 -4 -10 -3 0 -8 5 -11 10 -3 6 -1 10 4 10 6 0 11 -4 11 -10z m5308
-55 c-3 -3 -19 -10 -37 -15 -24 -7 -31 -6 -31 6 0 10 12 14 37 14 20 0 34 -2
31 -5z m-108 -19 c0 -14 -34 -27 -85 -31 -16 -1 -41 -5 -54 -9 -17 -6 -22 -5
-19 5 3 8 21 15 41 17 21 2 49 10 65 18 34 18 52 18 52 0z m-180 -38 c0 -5 -6
-8 -13 -8 -8 0 -28 -7 -44 -15 -20 -10 -38 -12 -53 -7 -20 8 -21 10 -6 24 16
16 116 21 116 6z m-19148 -40 c79 -37 142 -98 181 -177 l32 -66 0 -795 0 -795
-27 -57 c-37 -79 -98 -142 -177 -181 l-66 -32 -1855 0 -1855 0 -48 22 c-71 34
-150 113 -183 186 l-29 62 -3 775 c-2 763 -2 776 19 844 18 60 29 78 84 133
63 63 108 90 175 104 19 4 859 6 1865 5 l1830 -1 57 -27z m4580 0 c79 -37 142
-98 181 -177 l32 -66 0 -795 0 -795 -27 -57 c-37 -79 -98 -142 -177 -181 l-66
-32 -1860 0 -1860 0 -48 22 c-71 34 -150 113 -183 186 l-29 62 -3 775 c-2 763
-2 776 19 844 18 60 29 78 84 133 63 63 108 90 175 104 19 4 861 6 1870 5
l1835 -1 57 -27z m4570 0 c79 -37 142 -98 181 -177 l32 -66 0 -795 0 -795 -27
-57 c-37 -79 -98 -142 -177 -181 l-66 -32 -1855 0 -1855 0 -48 22 c-71 34
-150 113 -183 186 l-29 62 -3 775 c-2 763 -2 776 19 844 18 60 29 78 84 133
63 63 108 90 175 104 19 4 859 6 1865 5 l1830 -1 57 -27z m9838 17 c0 -9 -74
-36 -90 -32 -10 2 -5 8 15 19 29 15 75 23 75 13z m540 -5 c0 -5 16 -10 35 -10
19 0 35 5 35 10 0 11 33 14 43 3 10 -10 -13 -33 -33 -33 -10 0 -23 -6 -29 -14
-10 -12 -8 -19 8 -35 24 -24 40 -26 75 -10 13 6 36 9 49 5 27 -6 44 -35 24
-40 -26 -8 -207 -46 -312 -65 -60 -11 -168 -32 -240 -46 -71 -14 -195 -37
-275 -50 -80 -14 -190 -34 -245 -44 -114 -22 -306 -57 -350 -64 -48 -8 -295
-53 -410 -76 -27 -5 -53 -7 -57 -5 -4 3 -36 -2 -70 -10 -91 -22 -192 -31 -184
-17 4 6 27 11 52 11 24 0 63 9 87 19 42 19 93 32 135 33 15 0 22 6 22 19 0 29
27 34 65 13 32 -17 37 -17 62 -2 16 8 48 19 73 23 25 3 68 12 95 20 28 7 76
19 108 25 37 7 57 16 57 26 0 8 -8 14 -17 14 -10 0 -28 3 -40 6 -20 5 -23 2
-23 -21 0 -20 -4 -26 -17 -23 -10 2 -19 14 -21 26 -3 18 -8 22 -20 16 -9 -4
-27 -8 -39 -9 -13 -1 -26 -5 -30 -8 -17 -17 -31 -5 -30 27 1 28 6 35 34 45 18
7 38 9 43 6 6 -4 19 -3 28 1 9 4 31 8 47 10 46 4 99 16 110 24 6 4 37 11 70
15 33 4 71 13 86 20 16 9 30 10 40 4 24 -15 79 -11 79 6 0 8 6 15 14 15 8 0
16 6 18 12 4 10 10 10 32 0 17 -8 33 -9 40 -4 6 5 26 9 44 9 20 0 41 8 56 22
20 19 27 21 46 11 16 -9 25 -9 33 -1 6 6 20 11 32 11 11 1 31 7 45 14 17 10
30 11 43 4 11 -6 23 -6 30 0 19 15 86 22 112 12 16 -6 25 -5 28 4 7 17 75 37
83 24 3 -5 13 -6 23 -3 9 4 26 9 38 10 12 2 35 6 52 10 20 4 31 3 31 -4 0 -6
6 -11 14 -11 8 0 16 -5 18 -12 6 -17 28 0 28 23 0 10 5 19 10 19 6 0 10 -4 10
-10z m-5296 -42 c-6 -10 -74 -11 -74 -2 0 18 34 30 56 20 12 -6 20 -14 18 -18z
m278 2 c12 -16 30 -30 40 -30 10 0 18 -6 18 -14 0 -24 28 -26 43 -3 l15 22 26
-24 c14 -14 26 -27 26 -31 0 -4 -28 -12 -62 -18 -35 -6 -85 -15 -113 -21 -107
-22 -136 -24 -160 -11 -13 7 -21 18 -18 26 3 8 0 14 -6 14 -6 0 -11 7 -11 16
0 13 7 15 30 10 24 -4 32 -2 37 12 12 34 23 41 52 32 26 -7 29 -5 35 21 7 37
20 37 48 -1z m4358 21 c0 -13 -57 -31 -96 -31 -45 0 -43 16 4 28 48 13 92 14
92 3z m-190 -41 c0 -6 -6 -10 -12 -11 -7 0 -37 -3 -65 -5 -55 -4 -67 1 -33 14
31 12 110 13 110 2z m-147 -30 c-4 -5 -21 -12 -37 -16 -22 -5 -28 -4 -24 7 5
14 47 29 61 21 5 -2 5 -8 0 -12z m-4263 -8 c0 -14 -48 -33 -55 -22 -4 6 3 10
14 10 11 0 23 5 26 10 8 12 15 13 15 2z m-30 -82 c0 -5 -11 -10 -25 -10 -14 0
-28 0 -32 -1 -4 0 -9 4 -11 10 -2 7 11 11 32 11 20 0 36 -4 36 -10z m5647
-238 c132 -269 228 -473 278 -597 21 -49 48 -114 61 -144 13 -29 24 -61 24
-70 0 -18 -76 -145 -123 -204 -46 -59 -48 -56 -83 118 -16 81 -54 208 -74 245
-13 24 -28 25 -66 5 -16 -8 -36 -15 -46 -15 -22 0 -68 56 -68 83 0 12 -7 31
-15 41 -8 11 -15 26 -15 33 0 8 -8 25 -17 40 -9 14 -18 33 -19 42 -3 21 -28
102 -54 175 -29 79 -25 89 30 90 l45 1 2 120 c2 141 12 265 21 265 4 0 57
-103 119 -228z m-382 58 l0 -125 -27 -13 c-20 -9 -38 -10 -70 -3 -68 15 -305
48 -513 72 -104 11 -196 23 -204 25 -25 8 3 24 70 40 120 28 144 33 254 54 61
11 173 34 250 49 77 16 163 28 190 28 l50 -2 0 -125z m-1472 46 c9 -3 17 -10
17 -16 0 -15 -33 -12 -58 6 -26 18 -21 39 6 25 9 -5 25 -12 35 -15z m-333
-276 c0 -5 -5 -10 -11 -10 -5 0 -7 5 -4 10 3 6 8 10 11 10 2 0 4 -4 4 -10z
m-115 -30 c-3 -5 -13 -10 -21 -10 -8 0 -14 5 -14 10 0 6 9 10 21 10 11 0 17
-4 14 -10z m-7146 -540 c42 -11 295 -70 566 -131 50 -11 119 -27 155 -36 36
-9 80 -18 98 -21 17 -2 32 -8 32 -13 0 -10 -24 -16 -260 -62 -204 -40 -438
-94 -551 -127 -41 -12 -82 -24 -91 -26 -17 -5 -18 10 -18 210 0 240 -5 226 69
206z m9375 -97 c3 -10 10 -49 16 -88 6 -38 17 -90 25 -115 16 -52 45 -207 45
-243 0 -28 -123 -167 -137 -154 -4 5 -9 66 -10 135 -1 70 -5 198 -8 284 -6
149 -6 157 14 177 26 26 48 27 55 4z m-7309 -163 c0 -18 -33 -26 -48 -11 -9 9
-8 14 3 21 21 14 45 8 45 -10z m-730 -171 c0 -7 -8 -15 -17 -17 -18 -3 -25 18
-11 32 10 10 28 1 28 -15z m140 -18 c7 -12 -12 -24 -25 -16 -11 7 -4 25 10 25
5 0 11 -4 15 -9z m-445 -36 c0 -8 -7 -15 -15 -15 -16 0 -20 12 -8 23 11 12 23
8 23 -8z m140 -35 c0 -5 -4 -10 -9 -10 -6 0 -13 5 -16 10 -3 6 1 10 9 10 9 0
16 -4 16 -10z m145 -30 c3 -5 -1 -10 -10 -10 -9 0 -13 5 -10 10 3 6 8 10 10
10 2 0 7 -4 10 -10z m-450 -10 c3 -5 -1 -10 -9 -10 -9 0 -16 5 -16 10 0 6 4
10 9 10 6 0 13 -4 16 -10z m-300 -9 c7 -12 -12 -24 -25 -16 -11 7 -4 25 10 25
5 0 11 -4 15 -9z m-165 -57 c0 -9 -5 -14 -12 -12 -18 6 -21 28 -4 28 9 0 16
-7 16 -16z m300 -4 c0 -5 -4 -10 -10 -10 -5 0 -10 5 -10 10 0 6 5 10 10 10 6
0 10 -4 10 -10z m-470 -30 c0 -5 -4 -10 -10 -10 -5 0 -10 5 -10 10 0 6 5 10
10 10 6 0 10 -4 10 -10z"/>
<path d="M24535 13331 c-11 -5 -31 -21 -45 -36 l-25 -27 0 -369 0 -369 33 -32
32 -33 1690 0 1690 0 32 33 33 32 0 370 0 370 -33 32 -32 33 -1678 2 c-922 1
-1686 -2 -1697 -6z m1015 -306 c0 -11 -12 -15 -45 -15 l-45 0 0 -130 c0 -108
-3 -130 -15 -130 -12 0 -15 23 -17 128 l-3 127 -47 3 c-34 2 -48 7 -48 18 0
11 21 14 110 14 91 0 110 -3 110 -15z m280 -130 c0 -122 -2 -145 -15 -145 -13
0 -15 23 -15 145 0 122 2 145 15 145 13 0 15 -23 15 -145z m100 58 l1 -88 48
53 c32 35 55 52 71 52 22 0 20 -4 -23 -48 l-47 -48 51 -62 c47 -59 49 -62 26
-62 -18 0 -36 14 -63 50 -43 57 -64 53 -64 -11 0 -28 -4 -39 -15 -39 -13 0
-15 23 -15 145 0 122 2 145 15 145 12 0 15 -17 15 -87z m340 42 c0 -18 5 -25
20 -25 11 0 20 -7 20 -15 0 -8 -9 -15 -20 -15 -19 0 -21 -5 -18 -77 3 -72 5
-78 26 -81 29 -4 29 -32 -1 -32 -48 0 -61 22 -65 109 -3 61 -8 81 -18 81 -8 0
-14 7 -14 15 0 8 7 15 15 15 9 0 15 9 15 25 0 18 5 25 20 25 15 0 20 -7 20
-25z m-559 -44 c21 -17 24 -29 27 -110 4 -87 3 -91 -17 -91 -12 0 -21 6 -21
16 0 14 -2 14 -22 0 -48 -34 -118 -6 -118 47 0 34 29 56 84 63 50 7 66 24 46
49 -16 20 -50 19 -79 -1 -23 -17 -46 -8 -33 12 24 36 97 44 133 15z m800 -10
c25 -25 29 -37 29 -81 0 -44 -4 -56 -29 -81 -22 -21 -39 -29 -66 -29 -27 0
-44 8 -66 29 -25 25 -29 37 -29 81 0 44 4 56 29 81 22 21 39 29 66 29 27 0 44
-8 66 -29z m229 -44 c0 -106 39 -148 90 -97 16 16 20 33 20 95 0 60 3 75 15
75 12 0 15 -19 15 -110 0 -91 -3 -110 -15 -110 -8 0 -15 7 -15 16 0 14 -2 14
-22 0 -31 -22 -68 -20 -95 6 -21 19 -23 30 -23 110 0 72 3 88 15 88 12 0 15
-15 15 -73z m341 52 c27 -27 10 -52 -19 -26 -30 28 -82 19 -82 -14 0 -14 14
-22 56 -35 67 -19 87 -48 60 -88 -28 -43 -123 -45 -150 -3 -17 26 1 32 38 12
29 -16 39 -17 61 -7 40 18 27 41 -34 62 -76 26 -90 52 -46 95 31 32 86 34 116
4z"/>
<path d="M25685 12855 c-5 -2 -27 -6 -47 -10 -32 -5 -38 -10 -38 -30 0 -18 7
-26 25 -31 34 -9 75 19 75 51 0 14 -1 25 -2 24 -2 0 -7 -2 -13 -4z"/>
<path d="M26401 12914 c-12 -15 -21 -39 -21 -54 0 -36 35 -80 65 -80 30 0 65
44 65 80 0 36 -35 80 -65 80 -14 0 -32 -11 -44 -26z"/>
<path d="M13380 12961 l0 -61 45 0 c57 0 90 28 80 68 -9 39 -18 44 -74 50
l-51 5 0 -62z"/>
<path d="M15326 12953 c-10 -32 -21 -64 -23 -70 -4 -9 8 -13 41 -13 25 0 46 4
46 8 0 10 -41 132 -44 132 -1 0 -10 -26 -20 -57z"/>
<path d="M15576 12934 c-21 -20 -30 -58 -22 -88 21 -86 116 -66 116 24 0 65
-56 103 -94 64z"/>
<path d="M11688 12933 c-34 -40 -32 -43 31 -43 66 0 77 12 43 43 -24 22 -55
22 -74 0z"/>
<path d="M12628 12933 c-34 -40 -32 -43 31 -43 66 0 77 12 43 43 -24 22 -55
22 -74 0z"/>
<path d="M13640 12930 c-42 -42 -15 -140 39 -140 37 0 66 35 66 80 0 69 -61
104 -105 60z"/>
<path d="M14300 12932 c-33 -27 -33 -97 -1 -123 49 -40 101 -8 101 61 0 68
-52 101 -100 62z"/>
<path d="M14730 12930 c-42 -42 -15 -140 39 -140 37 0 66 35 66 80 0 69 -61
104 -105 60z"/>
<path d="M15810 12930 c-43 -43 -15 -140 40 -140 33 0 60 35 60 80 0 45 -27
80 -60 80 -11 0 -29 -9 -40 -20z"/>
<path d="M17528 12933 c-34 -40 -32 -43 31 -43 66 0 77 12 43 43 -24 22 -55
22 -74 0z"/>
<path d="M18550 12930 c-43 -43 -15 -140 40 -140 33 0 60 35 60 80 0 45 -27
80 -60 80 -11 0 -29 -9 -40 -20z"/>
<path d="M19185 12865 c-5 -2 -27 -6 -47 -10 -32 -5 -38 -10 -38 -30 0 -18 7
-26 25 -31 34 -9 75 19 75 51 0 14 -1 25 -2 24 -2 0 -7 -2 -13 -4z"/>
<path d="M23945 10360 c-8 -14 3 -30 21 -30 8 0 14 9 14 20 0 21 -24 28 -35
10z"/>
<path d="M25553 10285 c0 -22 2 -30 4 -17 2 12 2 30 0 40 -3 9 -5 -1 -4 -23z"/>
<path d="M23980 10190 c0 -5 5 -10 10 -10 6 0 10 5 10 10 0 6 -4 10 -10 10 -5
0 -10 -4 -10 -10z"/>
<path d="M23957 10140 c6 -30 9 -34 22 -25 16 9 13 25 -3 25 -8 0 -16 6 -19
13 -2 6 -2 1 0 -13z"/>
<path d="M23970 9686 c0 -9 5 -16 10 -16 6 0 10 4 10 9 0 6 -4 13 -10 16 -5 3
-10 -1 -10 -9z"/>
<path d="M23960 9550 c0 -5 5 -10 11 -10 5 0 7 5 4 10 -3 6 -8 10 -11 10 -2 0
-4 -4 -4 -10z"/>
<path d="M23940 9435 c0 -8 5 -15 10 -15 6 0 10 7 10 15 0 8 -4 15 -10 15 -5
0 -10 -7 -10 -15z"/>
<path d="M23970 9375 c-7 -18 -7 -32 -1 -38 5 -5 12 3 16 23 9 41 -1 51 -15
15z"/>
<path d="M17920 2230 c0 -5 7 -10 16 -10 8 0 12 5 9 10 -3 6 -10 10 -16 10 -5
0 -9 -4 -9 -10z"/>
<path d="M18917 2009 c-23 -26 -14 -36 17 -20 15 9 38 11 64 6 27 -4 42 -2 47
5 11 18 -15 30 -65 30 -34 0 -50 -5 -63 -21z"/>
<path d="M18820 2006 c0 -20 14 -28 36 -19 16 6 16 7 -2 20 -23 17 -34 17 -34
-1z"/>
<path d="M3315 10058 c-2 -7 -10 -55 -18 -105 l-14 -93 107 0 108 0 11 63 c6
34 13 81 17 105 l7 42 -107 0 c-76 0 -108 -4 -111 -12z"/>
<path d="M7835 10086 c-63 -28 -101 -95 -111 -194 -17 -161 61 -282 181 -282
65 0 110 28 145 90 22 40 25 56 25 155 0 99 -3 115 -25 155 -42 75 -139 110
-215 76z"/>
<path d="M10003 10081 c-29 -14 -49 -33 -70 -68 -26 -45 -28 -55 -28 -159 0
-106 1 -113 30 -159 70 -112 209 -115 282 -7 45 68 54 212 18 299 -42 100
-135 138 -232 94z"/>
<path d="M11830 9971 l0 -341 118 0 c179 1 249 35 305 149 31 63 32 70 32 191
0 110 -3 131 -24 177 -13 29 -41 69 -62 88 -63 56 -99 67 -241 73 l-128 4 0
-341z"/>
<path d="M6222 10083 c-46 -22 -79 -65 -97 -125 -41 -139 9 -298 105 -338 43
-18 130 -8 168 18 94 68 112 297 30 396 -53 64 -136 84 -206 49z"/>
<path d="M10815 10093 c-57 -14 -124 -101 -125 -160 0 -23 0 -23 176 -23 l177
0 -6 40 c-14 106 -112 170 -222 143z"/>
<path d="M13150 10079 c-73 -29 -120 -118 -120 -230 0 -138 67 -219 182 -219
70 0 116 25 148 81 22 38 25 56 25 139 0 82 -3 102 -25 145 -40 78 -132 115
-210 84z"/>
<path d="M14859 9825 c-3 -2 -49 -11 -103 -20 -110 -18 -148 -33 -173 -71 -22
-34 -8 -90 29 -117 42 -31 123 -34 178 -5 65 33 90 76 90 154 0 57 -6 74 -21
59z"/>
<path d="M8761 8321 c-12 -46 -42 -145 -67 -221 -24 -76 -44 -140 -44 -144 0
-3 63 -6 139 -6 l139 0 -54 163 c-29 89 -61 191 -72 226 l-18 65 -23 -83z"/>
<path d="M4150 8169 c-68 -27 -111 -103 -118 -206 -11 -171 59 -273 186 -273
138 0 219 170 167 348 -34 113 -136 170 -235 131z"/>
<path d="M6762 8163 c-46 -22 -79 -65 -97 -125 -41 -139 9 -298 105 -338 43
-18 130 -8 168 18 94 68 112 297 30 396 -53 64 -136 84 -206 49z"/>
<path d="M9540 8151 c-79 -42 -122 -157 -101 -274 21 -117 73 -167 176 -167
79 0 120 25 155 94 45 92 29 247 -33 315 -48 51 -135 66 -197 32z"/>
<path d="M10335 8166 c-44 -20 -84 -67 -100 -119 -7 -25 -11 -48 -8 -51 4 -3
84 -6 180 -6 173 0 173 0 173 23 -1 32 -33 98 -61 124 -47 43 -125 55 -184 29z"/>
<path d="M3072 6543 l3 -58 49 1 c35 0 52 5 62 19 35 47 -1 95 -71 95 l-46 0
3 -57z"/>
<path d="M7262 6514 c-47 -33 -19 -144 37 -144 26 0 61 46 61 80 0 33 -35 80
-59 80 -9 0 -27 -7 -39 -16z"/>
<path d="M7930 6510 c-43 -43 -15 -140 40 -140 33 0 60 35 60 80 0 45 -27 80
-60 80 -11 0 -29 -9 -40 -20z"/>
<path d="M12476 6504 c-15 -39 -7 -54 28 -54 33 0 45 15 46 58 0 19 -67 16
-74 -4z"/>
<path d="M13854 6509 c-24 -26 -23 -92 1 -119 40 -44 100 -8 100 60 0 69 -60
104 -101 59z"/>
<path d="M14524 6509 c-24 -26 -23 -92 1 -119 40 -44 100 -8 100 60 0 69 -60
104 -101 59z"/>
<path d="M15114 6587 c-2 -7 -3 -58 -2 -113 l3 -99 47 1 c83 1 125 68 99 156
-10 30 -20 43 -46 54 -43 18 -94 18 -101 1z"/>
<path d="M3330 6510 c-32 -32 -24 -40 40 -40 33 0 60 4 60 10 0 17 -39 50 -60
50 -11 0 -29 -9 -40 -20z"/>
<path d="M3771 6504 c-12 -15 -21 -39 -21 -54 0 -36 35 -80 65 -80 30 0 65 44
65 80 0 36 -35 80 -65 80 -14 0 -32 -11 -44 -26z"/>
<path d="M4571 6504 c-12 -15 -21 -39 -21 -54 0 -36 35 -80 65 -80 30 0 65 44
65 80 0 36 -35 80 -65 80 -14 0 -32 -11 -44 -26z"/>
<path d="M5360 6508 c-11 -12 -20 -25 -20 -30 0 -4 27 -8 60 -8 66 0 79 15 38
44 -31 22 -54 20 -78 -6z"/>
<path d="M5930 6512 c-33 -27 -33 -97 -1 -123 49 -40 101 -8 101 61 0 68 -52
101 -100 62z"/>
<path d="M6670 6512 c-30 -24 -33 -91 -6 -121 41 -45 101 -10 101 59 0 42 -27
80 -55 80 -10 0 -28 -8 -40 -18z"/>
<path d="M7010 6510 c-43 -43 -15 -140 40 -140 33 0 60 35 60 80 0 45 -27 80
-60 80 -11 0 -29 -9 -40 -20z"/>
<path d="M7527 6440 c-49 -9 -65 -25 -51 -48 14 -22 54 -27 76 -10 18 14 36
69 22 67 -5 -1 -26 -5 -47 -9z"/>
<path d="M8271 6504 c-53 -68 7 -164 74 -120 20 14 25 25 25 61 0 77 -58 111
-99 59z"/>
<path d="M8795 6443 c-11 -2 -30 -6 -41 -8 -46 -10 -35 -65 12 -65 29 0 64 33
64 60 0 11 -3 19 -7 19 -5 -1 -17 -3 -28 -6z"/>
<path d="M9707 6440 c-49 -9 -65 -25 -51 -48 14 -22 54 -27 76 -10 18 14 36
69 22 67 -5 -1 -26 -5 -47 -9z"/>
<path d="M10028 6513 c-34 -40 -32 -43 31 -43 66 0 77 12 43 43 -24 22 -55 22
-74 0z"/>
<path d="M10260 6510 c-43 -43 -15 -140 40 -140 33 0 60 35 60 80 0 45 -27 80
-60 80 -11 0 -29 -9 -40 -20z"/>
<path d="M12118 6513 c-34 -40 -32 -43 31 -43 66 0 77 12 43 43 -24 22 -55 22
-74 0z"/>
<path d="M13361 6504 c-12 -15 -21 -39 -21 -54 0 -36 35 -80 65 -80 30 0 65
44 65 80 0 36 -35 80 -65 80 -14 0 -32 -11 -44 -26z"/>
<path d="M14770 6510 c-32 -32 -24 -40 40 -40 33 0 60 4 60 10 0 17 -39 50
-60 50 -11 0 -29 -9 -40 -20z"/>
<path d="M15501 6504 c-53 -68 7 -164 74 -120 20 14 25 25 25 61 0 77 -58 111
-99 59z"/>
<path d="M16025 6443 c-11 -2 -30 -6 -41 -8 -46 -10 -35 -65 12 -65 29 0 64
33 64 60 0 11 -3 19 -7 19 -5 -1 -17 -3 -28 -6z"/>
<path d="M23341 6219 c-80 -5 -149 -13 -154 -18 -15 -15 1 -59 28 -77 l24 -16
-21 -38 c-19 -32 -20 -42 -10 -64 11 -24 16 -26 75 -26 148 0 369 14 382 24
21 17 -2 128 -28 132 -29 4 -31 11 -8 24 25 13 28 55 5 64 -19 7 -101 6 -293
-5z m234 -119 c0 -12 -25 -16 -140 -22 -127 -6 -172 -1 -153 17 3 4 52 8 109
11 56 2 105 7 108 10 3 3 21 4 41 2 23 -2 35 -8 35 -18z"/>
<path d="M23906 6204 c-29 -16 -29 -17 -23 -89 7 -102 16 -115 76 -115 60 0
75 15 60 59 -13 36 -2 81 11 46 4 -13 19 -22 40 -25 34 -5 52 -27 28 -34 -43
-13 -47 -16 -42 -31 9 -24 101 -21 109 4 7 24 -4 53 -27 69 -17 12 -17 15 -2
37 28 44 5 60 -98 68 -15 1 -33 8 -39 15 -17 16 -58 15 -93 -4z"/>
<path d="M23747 6203 c-14 -13 -6 -23 30 -38 35 -15 38 -14 56 4 11 10 16 24
13 30 -8 12 -88 15 -99 4z"/>
<path d="M22980 6170 c0 -5 5 -10 11 -10 5 0 7 5 4 10 -3 6 -8 10 -11 10 -2 0
-4 -4 -4 -10z"/>
<path d="M24095 5981 c-33 -7 -33 -8 -19 -138 5 -51 10 -63 24 -63 14 0 19 13
24 73 6 52 13 78 28 94 12 13 20 25 17 27 -10 9 -47 13 -74 7z"/>
<path d="M23772 5933 c2 -10 10 -18 18 -18 22 0 18 29 -3 33 -14 3 -18 -1 -15
-15z"/>
<path d="M23990 5910 c0 -5 6 -10 14 -10 8 0 18 5 21 10 3 6 -3 10 -14 10 -12
0 -21 -4 -21 -10z"/>
<path d="M24167 5833 c-4 -3 -7 -17 -7 -30 0 -16 6 -23 20 -23 20 0 25 15 14
44 -7 17 -16 20 -27 9z"/>
<path d="M23992 5708 c4 -46 28 -49 28 -4 0 26 -4 36 -16 36 -11 0 -14 -8 -12
-32z"/>
<path d="M23978 5629 c-22 -12 -23 -42 -2 -59 8 -8 34 -14 57 -14 39 -1 42 1
45 27 2 16 -2 35 -9 43 -13 16 -66 18 -91 3z"/>
<path d="M23470 5591 c0 -16 19 -23 40 -16 30 10 24 25 -10 25 -16 0 -30 -4
-30 -9z"/>
<path d="M23397 5319 c-10 -6 -24 -8 -32 -5 -15 5 -39 -17 -28 -27 3 -4 23 -7
43 -7 38 0 67 21 55 40 -8 12 -15 12 -38 -1z"/>
<path d="M24591 4887 c-47 -15 -135 -102 -126 -125 18 -43 17 -52 -7 -61 -13
-5 -30 -16 -37 -25 -7 -9 -24 -16 -36 -16 -24 0 -52 -26 -41 -37 4 -4 11 -1
16 7 5 8 12 11 15 8 4 -4 19 -2 34 4 14 6 37 11 51 12 16 1 26 8 28 20 2 11
12 27 22 35 21 19 34 88 18 93 -7 3 -8 10 -3 18 6 10 11 9 21 -5 11 -15 16
-16 29 -5 8 7 15 18 15 24 0 6 14 19 31 28 17 10 27 22 24 28 -7 12 -9 12 -54
-3z"/>
<path d="M24887 4753 c-4 -3 -7 -20 -7 -37 1 -28 2 -29 14 -13 18 23 34 22 56
-5 14 -18 21 -20 30 -12 17 17 3 54 -20 54 -10 0 -22 5 -25 10 -7 11 -38 13
-48 3z"/>
<path d="M24790 4689 c0 -24 23 -21 28 4 2 10 -3 17 -12 17 -10 0 -16 -9 -16
-21z"/>
<path d="M24590 4681 c0 -9 24 -21 41 -21 5 0 9 7 9 15 0 9 -9 15 -25 15 -14
0 -25 -4 -25 -9z"/>
<path d="M24906 4672 c-3 -6 -1 -14 5 -17 14 -9 20 -2 10 14 -6 8 -11 9 -15 3z"/>
<path d="M17445 6100 c-3 -5 -1 -10 4 -10 6 0 11 5 11 10 0 6 -2 10 -4 10 -3
0 -8 -4 -11 -10z"/>
<path d="M17420 4100 c0 -5 7 -10 15 -10 8 0 15 5 15 10 0 6 -7 10 -15 10 -8
0 -15 -4 -15 -10z"/>
<path d="M4761 5929 c-12 -35 -21 -67 -21 -71 0 -4 20 -8 45 -8 25 0 45 2 45
5 0 8 -41 129 -45 133 -1 2 -12 -25 -24 -59z"/>
<path d="M15194 5909 c-24 -26 -23 -92 1 -119 40 -44 100 -8 100 60 0 69 -60
104 -101 59z"/>
<path d="M3340 5912 c-33 -27 -33 -97 -1 -123 49 -40 101 -8 101 61 0 68 -52
101 -100 62z"/>
<path d="M4140 5912 c-33 -27 -33 -97 -1 -123 49 -40 101 -8 101 61 0 68 -52
101 -100 62z"/>
<path d="M5000 5910 c-43 -43 -15 -140 40 -140 33 0 60 35 60 80 0 45 -27 80
-60 80 -11 0 -29 -9 -40 -20z"/>
<path d="M5248 5913 c-34 -40 -32 -43 31 -43 66 0 77 12 43 43 -24 22 -55 22
-74 0z"/>
<path d="M6516 5914 c-21 -20 -30 -58 -22 -88 21 -86 116 -66 116 24 0 65 -56
103 -94 64z"/>
<path d="M6850 5912 c-33 -27 -33 -97 -1 -123 49 -40 101 -8 101 61 0 68 -52
101 -100 62z"/>
<path d="M7320 5910 c-32 -32 -24 -40 40 -40 33 0 60 4 60 10 0 17 -39 50 -60
50 -11 0 -29 -9 -40 -20z"/>
<path d="M7550 5908 c-11 -12 -20 -25 -20 -30 0 -4 27 -8 60 -8 66 0 79 15 38
44 -31 22 -54 20 -78 -6z"/>
<path d="M8280 5912 c-30 -24 -33 -91 -6 -121 41 -45 101 -10 101 59 0 42 -27
80 -55 80 -10 0 -28 -8 -40 -18z"/>
<path d="M9201 5904 c-12 -15 -21 -39 -21 -54 0 -36 35 -80 65 -80 30 0 65 44
65 80 0 36 -35 80 -65 80 -14 0 -32 -11 -44 -26z"/>
<path d="M9705 5843 c-11 -2 -30 -6 -41 -8 -46 -10 -35 -65 12 -65 29 0 64 33
64 60 0 11 -3 19 -7 19 -5 -1 -17 -3 -28 -6z"/>
<path d="M10332 5914 c-41 -28 -28 -44 38 -44 52 0 59 2 53 18 -14 41 -54 53
-91 26z"/>
<path d="M10890 5912 c-33 -27 -33 -97 -1 -123 49 -40 101 -8 101 61 0 68 -52
101 -100 62z"/>
<path d="M11690 5912 c-33 -27 -33 -97 -1 -123 49 -40 101 -8 101 61 0 68 -52
101 -100 62z"/>
<path d="M12621 5904 c-12 -15 -21 -39 -21 -54 0 -36 35 -80 65 -80 30 0 65
44 65 80 0 36 -35 80 -65 80 -14 0 -32 -11 -44 -26z"/>
<path d="M13612 5914 c-47 -33 -19 -144 37 -144 26 0 61 46 61 80 0 33 -35 80
-59 80 -9 0 -27 -7 -39 -16z"/>
<path d="M13895 5843 c-11 -2 -30 -6 -41 -8 -46 -10 -35 -65 12 -65 29 0 64
33 64 60 0 11 -3 19 -7 19 -5 -1 -17 -3 -28 -6z"/>
<path d="M14257 5839 c-45 -7 -62 -21 -54 -44 15 -37 83 -30 93 10 9 36 3 41
-39 34z"/>
<path d="M14705 5845 c-5 -2 -27 -6 -47 -10 -32 -5 -38 -10 -38 -30 0 -18 7
-26 25 -31 34 -9 75 19 75 51 0 14 -1 25 -2 24 -2 0 -7 -2 -13 -4z"/>
<path d="M14960 5908 c-11 -12 -20 -25 -20 -30 0 -4 27 -8 60 -8 66 0 79 15
38 44 -31 22 -54 20 -78 -6z"/>
<path d="M3980 5308 c-11 -12 -20 -25 -20 -30 0 -4 27 -8 60 -8 66 0 79 15 38
44 -31 22 -54 20 -78 -6z"/>
<path d="M5420 3794 l0 -57 52 5 c53 6 78 24 78 59 0 32 -29 49 -81 49 l-49 0
0 -56z"/>
<path d="M5420 3645 l0 -55 51 0 c66 0 89 13 89 50 0 39 -32 60 -92 60 l-48 0
0 -55z"/>
<path d="M5736 3738 c-23 -33 -21 -109 4 -136 47 -50 110 -11 110 68 0 61 -21
90 -65 90 -24 0 -39 -7 -49 -22z"/>
<path d="M6026 3738 c-23 -33 -21 -109 4 -136 47 -50 110 -11 110 68 0 61 -21
90 -65 90 -24 0 -39 -7 -49 -22z"/>
<path d="M6718 3648 c-47 -17 -30 -68 22 -68 32 0 60 28 60 58 0 17 -6 22 -27
21 -16 0 -40 -5 -55 -11z"/>
<path d="M7402 3650 c-47 -19 -35 -70 17 -70 35 0 57 18 65 53 6 25 4 27 -26
26 -18 0 -43 -4 -56 -9z"/>
<path d="M17740 3330 c0 -5 5 -10 11 -10 5 0 7 5 4 10 -3 6 -8 10 -11 10 -2 0
-4 -4 -4 -10z"/>
<path d="M3277 2319 c-95 -23 -181 -94 -226 -189 l-26 -55 0 -795 0 -795 26
-55 c34 -72 97 -136 167 -168 l57 -27 1850 0 1850 0 52 24 c63 28 145 112 176
178 l22 48 0 795 0 795 -22 48 c-31 66 -113 150 -176 178 l-52 24 -1830 2
c-1046 0 -1846 -3 -1868 -8z m1353 -564 c0 -25 -34 -103 -115 -265 l-115 -230
-50 0 -50 0 110 220 c60 121 110 222 110 225 0 3 -58 5 -130 5 l-130 0 0 40 0
40 185 0 185 0 0 -35z m390 -5 l0 -40 -109 0 -108 0 -7 -31 c-3 -17 -6 -46 -6
-64 l0 -33 31 15 c40 20 121 13 157 -14 68 -50 92 -155 52 -233 -73 -142 -316
-121 -347 30 -5 30 -5 30 41 30 41 0 48 -3 56 -25 12 -31 71 -59 103 -49 33
10 65 43 72 74 8 35 -16 95 -43 109 -29 15 -95 14 -117 -3 -19 -14 -81 -12
-98 3 -4 4 -2 56 3 117 17 173 -4 154 170 154 l150 0 0 -40z m218 -91 l-3
-131 25 33 c14 18 63 77 109 131 l83 98 61 0 60 0 -19 -22 c-125 -141 -174
-200 -174 -209 0 -6 43 -73 95 -149 52 -76 95 -141 95 -144 0 -3 -24 -6 -53
-6 l-54 0 -77 116 -78 116 -34 -33 c-33 -32 -34 -35 -34 -116 l0 -83 -50 0
-50 0 0 265 0 265 51 0 51 0 -4 -131z m572 -29 l0 -70 70 0 70 0 0 -40 0 -40
-70 0 -70 0 0 -70 0 -70 -40 0 -40 0 0 70 0 70 -70 0 -70 0 0 40 0 40 70 0 70
0 0 70 0 70 40 0 40 0 0 -70z m-1390 -756 c0 -8 -7 -14 -15 -14 -15 0 -21 21
-9 33 10 9 24 -2 24 -19z m-350 -4 c42 -42 15 -104 -50 -115 -38 -6 -40 -9
-40 -41 0 -24 -5 -34 -15 -34 -12 0 -15 18 -15 105 l0 105 50 0 c37 0 55 -5
70 -20z m1650 -85 c0 -87 -3 -105 -15 -105 -12 0 -15 18 -15 105 0 87 3 105
15 105 12 0 15 -18 15 -105z m590 1 l0 -103 -49 -2 c-43 0 -53 3 -70 26 -27
33 -27 73 0 108 18 22 28 26 55 23 31 -4 34 -2 34 24 0 18 5 28 15 28 12 0 15
-18 15 -104z m-1500 74 c0 -11 7 -20 15 -20 8 0 15 -4 15 -10 0 -5 -7 -10 -15
-10 -11 0 -15 -13 -15 -54 0 -45 3 -54 20 -59 28 -7 25 -27 -5 -27 -32 0 -45
26 -45 89 0 30 -5 52 -12 55 -10 5 -10 7 0 12 6 3 12 14 12 25 0 10 7 19 15
19 8 0 15 -9 15 -20z m1150 0 c0 -11 7 -20 15 -20 8 0 15 -4 15 -10 0 -5 -7
-10 -15 -10 -12 0 -15 -13 -15 -55 0 -42 3 -55 15 -55 8 0 15 -7 15 -15 0 -18
-31 -20 -48 -3 -7 7 -12 38 -12 69 0 36 -5 59 -12 63 -10 5 -10 7 0 12 6 3 12
14 12 25 0 10 7 19 15 19 8 0 15 -9 15 -20z m-1760 -37 c0 -9 -3 -13 -6 -10
-4 3 -15 2 -25 -4 -15 -8 -19 -21 -19 -69 0 -47 -3 -60 -15 -60 -12 0 -15 15
-15 79 l0 79 40 0 c30 1 40 -3 40 -15z m139 -9 c59 -75 -33 -180 -99 -114 -13
13 -20 33 -20 60 0 75 76 109 119 54z m81 -65 c0 -98 -10 -129 -40 -129 -23 0
-27 18 -5 26 12 5 15 26 15 100 0 77 3 94 15 94 12 0 15 -17 15 -91z m136 83
c15 -10 34 -47 34 -66 0 -13 -12 -16 -56 -16 -47 0 -55 -3 -50 -16 3 -9 6 -18
6 -20 0 -9 59 -3 66 7 4 7 9 8 17 0 17 -17 -12 -41 -48 -41 -40 0 -75 38 -75
80 0 56 65 100 106 72z m178 -14 c13 -21 0 -36 -16 -20 -38 38 -93 -12 -70
-63 12 -27 49 -34 69 -14 6 6 17 9 24 7 22 -7 -28 -48 -59 -48 -40 0 -67 33
-67 80 0 53 28 82 73 78 19 -2 40 -11 46 -20z m331 2 c22 -24 12 -39 -15 -22
-32 20 -60 15 -70 -13 -21 -55 21 -93 70 -63 27 17 37 2 15 -22 -43 -48 -115
-10 -115 60 0 70 72 108 115 60z m164 -6 c59 -75 -33 -180 -99 -114 -13 13
-20 33 -20 60 0 75 76 109 119 54z m148 14 c9 -7 17 -7 27 2 22 18 59 8 73
-20 18 -36 17 -130 -2 -130 -10 0 -15 16 -17 63 -3 59 -4 62 -30 65 l-28 3 0
-65 c0 -51 -3 -66 -15 -66 -10 0 -15 16 -17 63 -3 59 -4 62 -28 62 -24 0 -25
-3 -28 -62 -2 -47 -7 -63 -17 -63 -12 0 -15 17 -15 79 l0 79 42 0 c23 1 48 -4
55 -10z m173 0 c0 -9 3 -9 12 0 20 20 65 14 82 -10 36 -51 9 -138 -43 -138
-15 0 -32 5 -39 12 -9 9 -12 3 -12 -30 0 -31 -4 -42 -15 -42 -12 0 -15 19 -15
110 0 91 3 110 15 110 8 0 15 -5 15 -12z m324 -10 c9 -12 16 -33 16 -45 0 -21
-4 -23 -55 -23 -54 0 -55 -1 -44 -21 9 -19 17 -21 55 -15 24 3 44 4 44 2 0
-15 -36 -36 -61 -36 -41 0 -69 32 -69 78 0 53 23 82 65 82 24 0 39 -7 49 -22z
m249 5 c8 -10 19 -30 22 -45 l7 -28 -57 0 c-48 0 -56 -2 -53 -17 4 -21 53 -30
73 -13 10 8 15 8 21 -1 10 -17 -23 -39 -58 -39 -41 0 -68 32 -68 80 0 48 27
80 68 80 16 0 36 -8 45 -17z"/>
<path d="M3980 820 c0 -35 3 -40 23 -40 38 0 61 23 53 53 -5 23 -12 27 -41 27
-34 0 -35 -1 -35 -40z"/>
<path d="M6212 798 c-30 -30 -3 -92 39 -86 21 3 24 8 24 48 0 41 -2 45 -25 48
-14 2 -31 -3 -38 -10z"/>
<path d="M4250 785 c-14 -36 3 -75 33 -75 30 0 47 18 47 50 0 52 -62 72 -80
25z"/>
<path d="M4486 794 c-9 -24 -9 -24 35 -24 33 0 40 3 35 16 -3 9 -6 18 -6 20 0
12 -59 2 -64 -12z"/>
<path d="M5140 785 c-14 -36 3 -75 33 -75 30 0 47 18 47 50 0 52 -62 72 -80
25z"/>
<path d="M5564 794 c-25 -38 -9 -79 31 -79 28 0 30 3 33 38 5 64 -33 89 -64
41z"/>
<path d="M5807 809 c-30 -17 -20 -39 18 -39 24 0 35 5 35 15 0 21 -32 35 -53
24z"/>
<path d="M6047 803 c-19 -19 -5 -33 33 -33 38 0 40 2 30 20 -10 19 -49 27 -63
13z"/>
<path d="M7847 2319 c-95 -23 -181 -94 -226 -189 l-26 -55 0 -795 0 -795 26
-55 c34 -72 97 -136 167 -168 l57 -27 1855 0 1855 0 52 24 c63 28 145 112 176
178 l22 48 0 795 0 795 -22 48 c-31 66 -113 150 -176 178 l-52 24 -1835 2
c-1049 0 -1851 -3 -1873 -8z m1426 -530 c22 -6 55 -25 74 -43 31 -28 37 -40
41 -88 6 -75 -11 -106 -119 -222 l-91 -96 111 0 111 0 0 -40 0 -40 -180 0
-180 0 0 31 c0 27 19 51 124 160 100 102 126 134 132 164 9 49 -10 82 -54 95
-46 12 -82 -4 -102 -47 -13 -29 -19 -33 -57 -33 -37 0 -43 3 -43 21 0 34 30
88 62 111 50 35 109 45 171 27z m462 0 c55 -15 118 -82 135 -144 19 -66 16
-190 -4 -253 -30 -91 -128 -153 -215 -137 -120 23 -180 132 -168 305 8 121 53
197 134 225 47 17 67 18 118 4z m465 -159 l0 -70 70 0 70 0 0 -40 0 -40 -70 0
-70 0 0 -70 0 -70 -40 0 -40 0 0 70 0 70 -70 0 -70 0 0 40 0 40 70 0 70 0 0
70 0 70 40 0 40 0 0 -70z m-735 -741 c4 -6 -2 -13 -14 -16 -24 -6 -29 -33 -6
-33 8 0 15 -4 15 -10 0 -5 -7 -10 -15 -10 -12 0 -15 -14 -15 -70 0 -56 -3 -70
-15 -70 -12 0 -15 14 -15 70 0 56 -3 70 -15 70 -8 0 -15 5 -15 10 0 6 7 10 15
10 8 0 15 9 15 20 0 30 51 53 65 29z m889 -20 c-8 -14 -34 -11 -34 4 0 8 3 17
7 20 9 9 34 -13 27 -24z m-1909 -25 l27 -47 29 47 c16 25 36 46 44 46 17 0 13
-11 -32 -82 -15 -25 -23 -53 -23 -83 0 -33 -4 -45 -15 -45 -11 0 -15 11 -15
41 0 30 -10 58 -35 99 -39 65 -41 70 -21 70 8 0 26 -21 41 -46z m228 -21 c8
-10 19 -30 22 -45 l7 -28 -57 0 c-48 0 -56 -2 -53 -17 4 -21 53 -30 73 -13 10
8 15 8 21 -1 10 -17 -23 -39 -58 -39 -41 0 -68 32 -68 80 0 48 27 80 68 80 16
0 36 -8 45 -17z m161 1 c11 -11 16 -34 16 -78 l0 -63 -49 -1 c-92 -2 -111 68
-25 89 44 11 58 32 29 43 -8 3 -26 0 -40 -6 -32 -14 -47 -1 -21 18 26 19 71
18 90 -2z m136 7 c0 -4 -11 -13 -25 -19 -23 -10 -25 -17 -25 -72 0 -47 -3 -60
-15 -60 -12 0 -15 15 -15 79 l0 79 40 0 c22 0 40 -3 40 -7z m125 -11 c20 -22
7 -27 -25 -10 -20 11 -50 4 -50 -11 0 -6 20 -18 45 -29 32 -14 45 -25 45 -39
0 -45 -64 -67 -106 -37 -15 11 -16 17 -7 27 9 9 15 8 27 -4 18 -17 56 -12 56
9 0 7 -12 17 -27 20 -31 7 -63 32 -63 47 0 21 34 47 60 47 15 0 35 -9 45 -20z
m235 2 c17 -14 23 -29 23 -62 0 -33 -6 -48 -23 -62 -52 -42 -115 -8 -115 62 0
70 63 104 115 62z m350 -2 c11 -11 20 -31 20 -45 0 -24 -3 -25 -55 -25 -30 0
-55 -4 -55 -8 0 -26 61 -44 75 -22 3 5 12 7 21 3 26 -10 -14 -43 -51 -43 -43
0 -70 31 -70 80 0 71 69 106 115 60z m86 -6 l17 -25 22 27 c33 42 50 26 20
-19 -26 -37 -26 -38 -7 -65 32 -46 34 -52 19 -52 -8 0 -24 14 -35 32 l-20 31
-16 -31 c-9 -18 -23 -32 -31 -32 -20 0 -19 5 10 47 23 35 24 37 6 62 -31 45
-33 51 -17 51 9 0 23 -12 32 -26z m234 -1 c26 -33 26 -73 -1 -107 -22 -27 -57
-34 -77 -14 -9 9 -12 3 -12 -30 0 -31 -4 -42 -15 -42 -12 0 -15 19 -15 108 l0
109 50 1 c42 1 52 -3 70 -25z m164 5 c9 -12 16 -33 16 -45 0 -21 -4 -23 -55
-23 -54 0 -55 -1 -44 -21 9 -19 17 -21 55 -15 24 3 44 4 44 2 0 -15 -36 -36
-61 -36 -41 0 -69 32 -69 78 0 53 23 82 65 82 24 0 39 -7 49 -22z m76 10 c0
-9 3 -9 12 0 15 15 48 16 48 2 0 -5 -6 -10 -14 -10 -30 0 -46 -30 -46 -86 0
-41 -4 -54 -15 -54 -12 0 -15 16 -15 80 0 64 3 80 15 80 8 0 15 -5 15 -12z
m110 -68 c0 -64 -3 -80 -15 -80 -12 0 -15 16 -15 80 0 64 3 80 15 80 12 0 15
-16 15 -80z m150 60 c11 -11 20 -31 20 -45 0 -24 -3 -25 -55 -25 -30 0 -55 -4
-55 -8 0 -26 61 -44 75 -22 3 5 12 7 21 3 26 -10 -14 -43 -51 -43 -43 0 -70
31 -70 80 0 71 69 106 115 60z m80 8 c0 -9 3 -9 12 0 17 17 54 15 72 -4 22
-22 23 -144 1 -144 -12 0 -15 13 -15 58 0 74 -21 100 -54 66 -11 -10 -16 -34
-16 -70 0 -41 -4 -54 -15 -54 -12 0 -15 16 -15 80 0 64 3 80 15 80 8 0 15 -5
15 -12z m254 -10 c13 -21 0 -36 -16 -20 -38 38 -93 -12 -70 -63 12 -27 49 -34
69 -14 6 6 17 9 24 7 22 -7 -28 -48 -59 -48 -40 0 -67 33 -67 80 0 53 28 82
73 78 19 -2 40 -11 46 -20z m156 2 c11 -11 20 -31 20 -45 0 -24 -3 -25 -55
-25 -30 0 -55 -4 -55 -8 0 -26 61 -44 75 -22 3 5 12 7 21 3 26 -10 -14 -43
-51 -43 -43 0 -70 31 -70 80 0 71 69 106 115 60z"/>
<path d="M9627 1692 c-31 -34 -47 -90 -47 -167 0 -116 36 -185 96 -185 49 0
63 9 86 54 18 33 22 58 22 131 0 73 -4 98 -22 131 -11 23 -28 44 -37 48 -32
12 -82 6 -98 -12z"/>
<path d="M8597 803 c-19 -19 -5 -33 33 -33 38 0 40 2 30 20 -10 19 -49 27 -63
13z"/>
<path d="M8785 750 c-38 -7 -40 -34 -2 -38 17 -2 29 2 33 12 10 25 1 32 -31
26z"/>
<path d="M9248 785 c-16 -36 3 -75 37 -75 17 0 29 8 37 25 16 36 -3 75 -37 75
-17 0 -29 -8 -37 -25z"/>
<path d="M9602 798 c-21 -21 -14 -28 29 -28 33 0 40 3 37 18 -4 21 -48 28 -66
10z"/>
<path d="M9928 809 c-18 -10 -24 -52 -12 -83 7 -19 45 -21 62 -4 17 17 15 64
-4 82 -18 19 -23 19 -46 5z"/>
<path d="M10097 809 c-30 -17 -20 -39 18 -39 24 0 35 5 35 15 0 21 -32 35 -53
24z"/>
<path d="M10422 798 c-21 -21 -14 -28 29 -28 33 0 40 3 37 18 -4 21 -48 28
-66 10z"/>
<path d="M10912 798 c-21 -21 -14 -28 29 -28 33 0 40 3 37 18 -4 21 -48 28
-66 10z"/>
<path d="M12427 2319 c-95 -22 -181 -94 -226 -189 l-26 -55 0 -795 0 -795 26
-55 c34 -72 97 -136 167 -168 l57 -27 1850 0 1850 0 52 24 c63 28 145 112 176
178 l22 48 0 795 0 795 -22 48 c-31 66 -113 150 -176 178 l-52 24 -985 1
c-542 0 -956 -2 -920 -6 41 -4 -10 -7 -135 -7 -123 0 -175 3 -135 7 36 4 -284
7 -710 7 -426 1 -792 -3 -813 -8z m1658 -530 c55 -15 118 -82 135 -144 19 -66
16 -190 -4 -253 -30 -91 -128 -153 -215 -137 -120 23 -180 132 -168 305 8 121
53 197 134 225 47 17 67 18 118 4z m477 1 c86 -24 137 -105 145 -230 15 -210
-93 -342 -246 -300 -102 27 -155 119 -154 270 1 135 49 223 139 255 48 17 68
18 116 5z m-862 -175 l0 -175 30 0 c28 0 30 -2 30 -40 0 -38 -2 -40 -30 -40
-29 0 -30 -1 -30 -50 l0 -50 -50 0 -50 0 0 50 0 50 -125 0 -125 0 0 35 c0 27
25 75 112 215 l113 180 62 0 63 0 0 -175z m1328 13 l3 -68 64 0 65 0 0 -40 0
-40 -65 0 -65 0 0 -70 0 -70 -45 0 -45 0 0 70 0 70 -65 0 -65 0 0 40 0 40 65
0 65 0 0 63 c0 35 3 67 7 71 4 4 23 6 43 4 l35 -3 3 -67z m-1612 -739 c10 -17
-13 -36 -27 -22 -12 12 -4 33 11 33 5 0 12 -5 16 -11z m1684 -15 c0 -8 -7 -14
-15 -14 -15 0 -21 21 -9 33 10 9 24 -2 24 -19z m-1842 -4 c21 -20 30 -50 14
-50 -4 0 -15 9 -25 20 -39 46 -107 12 -107 -55 0 -66 64 -100 105 -55 10 11
22 20 27 20 16 0 8 -29 -14 -50 -30 -28 -80 -26 -115 4 -25 21 -28 31 -28 81
0 50 3 60 28 81 35 30 85 32 115 4z m92 -85 c0 -87 -3 -105 -15 -105 -12 0
-15 18 -15 105 0 87 3 105 15 105 12 0 15 -18 15 -105z m1280 0 c0 -87 -3
-105 -15 -105 -12 0 -15 18 -15 105 0 87 3 105 15 105 12 0 15 -18 15 -105z
m170 0 c0 -87 -3 -105 -15 -105 -8 0 -15 5 -15 10 0 6 -7 6 -18 -1 -41 -25
-92 15 -92 71 0 56 51 96 92 71 16 -10 18 -8 18 24 0 24 5 35 15 35 12 0 15
-18 15 -105z m470 0 c0 -87 -3 -105 -15 -105 -8 0 -15 5 -15 10 0 6 -7 6 -18
-1 -41 -25 -92 15 -92 71 0 56 51 96 92 71 16 -10 18 -8 18 24 0 24 5 35 15
35 12 0 15 -18 15 -105z m-1450 75 c0 -11 7 -20 15 -20 8 0 15 -4 15 -10 0 -5
-7 -10 -15 -10 -11 0 -15 -13 -15 -54 0 -39 4 -55 15 -60 21 -8 19 -26 -3 -26
-31 0 -42 22 -42 81 0 36 -5 59 -12 63 -10 5 -10 7 0 12 6 3 12 14 12 25 0 10
7 19 15 19 8 0 15 -9 15 -20z m-400 -100 c0 -64 -3 -80 -15 -80 -12 0 -15 16
-15 80 0 64 3 80 15 80 12 0 15 -16 15 -80z m143 63 c8 -10 19 -30 22 -45 l7
-28 -57 0 c-48 0 -56 -2 -53 -17 4 -21 53 -30 73 -13 10 8 15 8 21 -1 10 -17
-23 -39 -58 -39 -41 0 -68 32 -68 80 0 48 27 80 68 80 16 0 36 -8 45 -17z
m164 6 c20 -17 18 -149 -2 -149 -12 0 -15 14 -15 64 0 50 -4 65 -16 70 -30 11
-44 -13 -44 -75 0 -46 -3 -59 -15 -59 -12 0 -15 15 -15 78 l0 78 47 2 c25 1
52 -3 60 -9z m243 -4 c17 -21 4 -32 -20 -17 -11 6 -26 9 -35 6 -27 -11 -16
-31 24 -43 48 -14 61 -43 35 -72 -22 -24 -82 -22 -98 3 -15 24 -1 33 25 14 16
-11 27 -12 41 -5 28 15 22 27 -21 39 -51 13 -65 44 -35 74 20 20 68 21 84 1z
m161 -35 c12 -46 29 -68 29 -37 0 31 22 87 35 87 13 0 35 -56 35 -87 0 -7 5
-13 10 -13 6 0 10 6 10 13 0 34 22 87 37 87 8 0 13 -6 11 -12 -3 -7 -13 -44
-23 -81 -23 -86 -43 -87 -65 -4 l-16 58 -15 -58 c-22 -84 -41 -81 -67 11 -26
88 -26 86 -8 86 9 0 19 -20 27 -50z m308 24 c59 -75 -33 -180 -99 -114 -13 13
-20 33 -20 60 0 75 76 109 119 54z m131 9 c0 -9 -3 -13 -6 -10 -4 3 -15 2 -25
-4 -15 -8 -19 -21 -19 -69 0 -47 -3 -60 -15 -60 -12 0 -15 15 -15 79 l0 79 40
0 c30 1 40 -3 40 -15z m301 -33 c12 -46 29 -68 29 -37 0 31 22 87 35 87 13 0
35 -56 35 -87 0 -7 5 -13 10 -13 6 0 10 6 10 13 0 34 22 87 37 87 8 0 13 -6
11 -12 -3 -7 -13 -44 -23 -81 -23 -86 -43 -87 -65 -4 l-16 58 -15 -58 c-22
-84 -41 -81 -67 11 -26 88 -26 86 -8 86 9 0 19 -20 27 -50z m229 -30 c0 -64
-3 -80 -15 -80 -12 0 -15 16 -15 80 0 64 3 80 15 80 12 0 15 -16 15 -80z m306
72 c15 -10 34 -47 34 -66 0 -13 -12 -16 -56 -16 -47 0 -55 -3 -50 -16 3 -9 6
-18 6 -20 0 -9 59 -3 66 7 4 7 9 8 17 0 17 -17 -12 -41 -48 -41 -40 0 -75 38
-75 80 0 56 65 100 106 72z"/>
<path d="M13977 1692 c-31 -34 -47 -90 -47 -167 0 -116 36 -185 96 -185 49 0
63 9 86 54 18 33 22 58 22 131 0 73 -4 98 -22 131 -11 23 -28 44 -37 48 -32
12 -82 6 -98 -12z"/>
<path d="M14462 1703 c-7 -3 -22 -24 -34 -46 -31 -60 -31 -204 0 -263 23 -45
37 -54 86 -54 60 0 96 69 96 185 0 77 -16 133 -47 167 -15 17 -71 23 -101 11z"/>
<path d="M13528 1561 c-38 -60 -68 -112 -68 -115 0 -3 32 -6 70 -6 l70 0 0
115 c0 63 -1 115 -2 115 -2 0 -33 -49 -70 -109z"/>
<path d="M14694 785 c-3 -14 -3 -36 0 -50 5 -20 13 -25 36 -25 23 0 31 5 36
25 3 14 3 36 0 50 -5 20 -13 25 -36 25 -23 0 -31 -5 -36 -25z"/>
<path d="M15164 785 c-3 -14 -3 -36 0 -50 5 -20 13 -25 36 -25 23 0 31 5 36
25 3 14 3 36 0 50 -5 20 -13 25 -36 25 -23 0 -31 -5 -36 -25z"/>
<path d="M13487 803 c-19 -19 -5 -33 33 -33 38 0 40 2 30 20 -10 19 -49 27
-63 13z"/>
<path d="M14350 785 c-14 -36 3 -75 33 -75 30 0 47 18 47 50 0 52 -62 72 -80
25z"/>
<path d="M15336 794 c-9 -24 -9 -24 35 -24 33 0 40 3 35 16 -3 9 -6 18 -6 20
0 12 -59 2 -64 -12z"/>
<path d="M26440 2230 c0 -5 5 -10 10 -10 6 0 10 5 10 10 0 6 -4 10 -10 10 -5
0 -10 -4 -10 -10z"/>
<path d="M26534 2229 c-3 -6 -15 -9 -25 -6 -10 3 -22 1 -25 -4 -9 -15 71 -10
92 6 18 14 18 14 -8 15 -15 0 -30 -5 -34 -11z"/>
<path d="M25600 2115 c0 -8 5 -15 10 -15 6 0 10 7 10 15 0 8 -4 15 -10 15 -5
0 -10 -7 -10 -15z"/>
<path d="M25190 2070 c0 -5 5 -10 10 -10 6 0 10 5 10 10 0 6 -4 10 -10 10 -5
0 -10 -4 -10 -10z"/>
<path d="M25530 2070 c0 -5 7 -10 15 -10 8 0 15 5 15 10 0 6 -7 10 -15 10 -8
0 -15 -4 -15 -10z"/>
<path d="M25580 2050 c0 -5 5 -10 10 -10 6 0 10 5 10 10 0 6 -4 10 -10 10 -5
0 -10 -4 -10 -10z"/>
<path d="M19476 1095 c4 -8 10 -15 15 -15 5 0 9 7 9 15 0 8 -7 15 -15 15 -9 0
-12 -6 -9 -15z"/>
<path d="M19560 1034 c0 -3 6 -12 14 -19 12 -12 16 -11 31 5 18 19 17 20 -13
20 -18 0 -32 -3 -32 -6z"/>
<path d="M19600 931 c0 -5 7 -11 14 -14 10 -4 13 -1 9 9 -6 15 -23 19 -23 5z"/>
<path d="M19551 621 c-11 -7 -10 -13 5 -35 21 -29 41 -29 36 0 -5 28 -25 45
-41 35z"/>
<path d="M19605 550 c3 -5 8 -10 11 -10 2 0 4 5 4 10 0 6 -5 10 -11 10 -5 0
-7 -4 -4 -10z"/>
</g>
</svg>
