<svg width="15" height="16" viewBox="0 0 15 16" fill="none" xmlns="http://www.w3.org/2000/svg">
<path fill-rule="evenodd" clip-rule="evenodd" d="M1.43273 2.00342C2.94444 0.491716 5.3954 0.491716 6.90711 2.00342C8.41882 3.51513 8.41882 5.96609 6.90711 7.4778C6.34442 8.04049 5.6516 8.39373 4.92552 8.53753L7.0639 10.6759C7.2077 9.94983 7.56095 9.25701 8.12364 8.69433C9.63534 7.18262 12.0863 7.18262 13.598 8.69433C15.1097 10.206 15.1097 12.657 13.598 14.1687C12.1891 15.5776 9.96434 15.6734 8.44447 14.4561L8.42777 14.4728L8.12364 14.1687L1.43273 7.4778L1.1286 7.17367L1.14531 7.15696C-0.0719815 5.63709 0.0238272 3.41233 1.43273 2.00342ZM9.34017 12.9522C10.18 13.792 11.5416 13.792 12.3815 12.9522C13.2213 12.1123 13.2213 10.7507 12.3815 9.91085C11.5416 9.07102 10.18 9.07102 9.34016 9.91085C8.50033 10.7507 8.50033 12.1123 9.34017 12.9522ZM5.69058 6.26127C4.85074 7.10111 3.4891 7.10111 2.64926 6.26127C1.80943 5.42143 1.80943 4.05979 2.64926 3.21995C3.4891 2.38011 4.85074 2.38011 5.69058 3.21995C6.53042 4.05979 6.53042 5.42143 5.69058 6.26127Z" fill="#141313"/>
</svg>
