<svg width="20" height="20" viewBox="0 0 20 20" fill="none" xmlns="http://www.w3.org/2000/svg">
<path d="M8.82412 11.175C9.16578 11.5 9.16578 12.0333 8.82412 12.3583C8.49912 12.6833 7.96578 12.6833 7.64078 12.3583C6.86027 11.5766 6.42187 10.5171 6.42187 9.41247C6.42187 8.30782 6.86027 7.24833 7.64078 6.46664L10.5908 3.51664C11.3725 2.73612 12.432 2.29773 13.5366 2.29773C14.6413 2.29773 15.7008 2.73612 16.4825 3.51664C17.263 4.29833 17.7014 5.35782 17.7014 6.46247C17.7014 7.56712 17.263 8.62662 16.4825 9.40831L15.2408 10.65C15.2491 9.96664 15.1408 9.28331 14.9074 8.63331L15.2991 8.23331C15.5327 8.00221 15.7182 7.72708 15.8448 7.42383C15.9713 7.12058 16.0365 6.79524 16.0365 6.46664C16.0365 6.13804 15.9713 5.8127 15.8448 5.50945C15.7182 5.2062 15.5327 4.93107 15.2991 4.69997C15.068 4.46636 14.7929 4.2809 14.4896 4.15432C14.1864 4.02775 13.8611 3.96257 13.5325 3.96257C13.2038 3.96257 12.8785 4.02775 12.5753 4.15432C12.272 4.2809 11.9969 4.46636 11.7658 4.69997L8.82412 7.64164C8.5905 7.87273 8.40504 8.14787 8.27847 8.45111C8.15189 8.75436 8.08672 9.0797 8.08672 9.40831C8.08672 9.73691 8.15189 10.0622 8.27847 10.3655C8.40504 10.6687 8.5905 10.9439 8.82412 11.175ZM11.1741 7.64164C11.4991 7.31664 12.0325 7.31664 12.3575 7.64164C13.138 8.42333 13.5764 9.48282 13.5764 10.5875C13.5764 11.6921 13.138 12.7516 12.3575 13.5333L9.40745 16.4833C8.62576 17.2638 7.56627 17.7022 6.46162 17.7022C5.35697 17.7022 4.29747 17.2638 3.51578 16.4833C2.73527 15.7016 2.29688 14.6421 2.29688 13.5375C2.29687 12.4328 2.73527 11.3733 3.51578 10.5916L4.75745 9.34997C4.74912 10.0333 4.85745 10.7166 5.09078 11.375L4.69912 11.7666C4.4655 11.9977 4.28004 12.2729 4.15347 12.5761C4.02689 12.8794 3.96172 13.2047 3.96172 13.5333C3.96172 13.8619 4.02689 14.1872 4.15347 14.4905C4.28004 14.7937 4.4655 15.0689 4.69912 15.3C4.93021 15.5336 5.20534 15.719 5.50859 15.8456C5.81184 15.9722 6.13718 16.0374 6.46578 16.0374C6.79439 16.0374 7.11973 15.9722 7.42298 15.8456C7.72622 15.719 8.00136 15.5336 8.23245 15.3L11.1741 12.3583C11.4077 12.1272 11.5932 11.8521 11.7198 11.5488C11.8463 11.2456 11.9115 10.9202 11.9115 10.5916C11.9115 10.263 11.8463 9.9377 11.7198 9.63445C11.5932 9.3312 11.4077 9.05607 11.1741 8.82497C11.0932 8.74913 11.0287 8.65749 10.9846 8.55573C10.9405 8.45396 10.9177 8.34422 10.9177 8.23331C10.9177 8.12239 10.9405 8.01265 10.9846 7.91089C11.0287 7.80912 11.0932 7.71748 11.1741 7.64164Z" fill="white"/>
</svg>
