<svg width="64" height="64" viewBox="0 0 64 64" fill="none" xmlns="http://www.w3.org/2000/svg">
<g opacity="0.2">
<path d="M12.2215 46.1894C9.47487 43.272 8.00021 40 8.00021 34.696C8.00021 25.3627 14.5522 16.9974 24.0802 12.8614L26.4615 16.536C17.5682 21.3467 15.8295 27.5894 15.1362 31.5254C16.5682 30.784 18.4429 30.5254 20.2802 30.696C25.0909 31.1414 28.8829 35.0907 28.8829 40C28.8829 42.4754 27.8995 44.8494 26.1492 46.5997C24.3989 48.35 22.0249 49.3334 19.5495 49.3334C16.6882 49.3334 13.9522 48.0267 12.2215 46.1894ZM38.8882 46.1894C36.1415 43.272 34.6669 40 34.6669 34.696C34.6669 25.3627 41.2189 16.9974 50.7469 12.8614L53.1282 16.536C44.2349 21.3467 42.4962 27.5894 41.8029 31.5254C43.2349 30.784 45.1095 30.5254 46.9469 30.696C51.7575 31.1414 55.5469 35.0907 55.5469 40C55.5469 42.4754 54.5635 44.8494 52.8132 46.5997C51.0629 48.35 48.6889 49.3334 46.2135 49.3334C43.3522 49.3334 40.6162 48.0267 38.8855 46.1894L38.8882 46.1894Z" fill="white"/>
</g>
</svg>
